<svg width="341" height="40" viewBox="0 0 341 40" fill="none" xmlns="http://www.w3.org/2000/svg">
<rect width="341" height="40" rx="10" fill="#F09C4F"/>
<path d="M144.928 22.296H141.436L140.836 24H139.408L142.396 15.648H143.98L146.968 24H145.528L144.928 22.296ZM144.544 21.18L143.188 17.304L141.82 21.18H144.544ZM149.635 18.36C149.867 18.056 150.183 17.8 150.583 17.592C150.983 17.384 151.435 17.28 151.939 17.28C152.515 17.28 153.039 17.424 153.511 17.712C153.991 17.992 154.367 18.388 154.639 18.9C154.911 19.412 155.047 20 155.047 20.664C155.047 21.328 154.911 21.924 154.639 22.452C154.367 22.972 153.991 23.38 153.511 23.676C153.039 23.964 152.515 24.108 151.939 24.108C151.435 24.108 150.987 24.008 150.595 23.808C150.203 23.6 149.883 23.344 149.635 23.04V27.144H148.267V17.388H149.635V18.36ZM153.655 20.664C153.655 20.208 153.559 19.816 153.367 19.488C153.183 19.152 152.935 18.9 152.623 18.732C152.319 18.556 151.991 18.468 151.639 18.468C151.295 18.468 150.967 18.556 150.655 18.732C150.351 18.908 150.103 19.164 149.911 19.5C149.727 19.836 149.635 20.232 149.635 20.688C149.635 21.144 149.727 21.544 149.911 21.888C150.103 22.224 150.351 22.48 150.655 22.656C150.967 22.832 151.295 22.92 151.639 22.92C151.991 22.92 152.319 22.832 152.623 22.656C152.935 22.472 153.183 22.208 153.367 21.864C153.559 21.52 153.655 21.12 153.655 20.664ZM157.768 18.36C158 18.056 158.316 17.8 158.716 17.592C159.116 17.384 159.568 17.28 160.072 17.28C160.648 17.28 161.172 17.424 161.644 17.712C162.124 17.992 162.5 18.388 162.772 18.9C163.044 19.412 163.18 20 163.18 20.664C163.18 21.328 163.044 21.924 162.772 22.452C162.5 22.972 162.124 23.38 161.644 23.676C161.172 23.964 160.648 24.108 160.072 24.108C159.568 24.108 159.12 24.008 158.728 23.808C158.336 23.6 158.016 23.344 157.768 23.04V27.144H156.4V17.388H157.768V18.36ZM161.788 20.664C161.788 20.208 161.692 19.816 161.5 19.488C161.316 19.152 161.068 18.9 160.756 18.732C160.452 18.556 160.124 18.468 159.772 18.468C159.428 18.468 159.1 18.556 158.788 18.732C158.484 18.908 158.236 19.164 158.044 19.5C157.86 19.836 157.768 20.232 157.768 20.688C157.768 21.144 157.86 21.544 158.044 21.888C158.236 22.224 158.484 22.48 158.788 22.656C159.1 22.832 159.428 22.92 159.772 22.92C160.124 22.92 160.452 22.832 160.756 22.656C161.068 22.472 161.316 22.208 161.5 21.864C161.692 21.52 161.788 21.12 161.788 20.664ZM165.901 15.12V24H164.533V15.12H165.901ZM173.649 17.388L169.593 27.108H168.177L169.521 23.892L166.917 17.388H168.441L170.301 22.428L172.233 17.388H173.649Z" fill="white"/>
<path d="M192.47 16.5303C192.177 16.2374 192.177 15.7626 192.47 15.4697C192.763 15.1768 193.237 15.1768 193.53 15.4697L197.53 19.4697C197.823 19.7626 197.823 20.2374 197.53 20.5303L193.53 24.5303C193.237 24.8232 192.763 24.8232 192.47 24.5303C192.177 24.2374 192.177 23.7626 192.47 23.4697L195.189 20.75H185.5C185.086 20.75 184.75 20.4142 184.75 20C184.75 19.5858 185.086 19.25 185.5 19.25H195.189L192.47 16.5303Z" fill="white"/>
</svg>
