<svg width="76" height="17" viewBox="0 0 76 17" fill="none" xmlns="http://www.w3.org/2000/svg">
<g clip-path="url(#clip0_126_269)">
<path d="M70.6842 0H4.47368C2.00294 0 0 2.00294 0 4.47368V12.5263C0 14.9971 2.00294 17 4.47368 17H70.6842C73.155 17 75.1579 14.9971 75.1579 12.5263V4.47368C75.1579 2.00294 73.155 0 70.6842 0Z" fill="#9EA2FF"/>
<path d="M12.8487 11.6315L11.4171 9.1441H10.6387V11.6315H9.61865V5.41305H11.766C12.2432 5.41305 12.6458 5.49655 12.9739 5.66357C13.3079 5.83059 13.5555 6.05428 13.7165 6.33462C13.8836 6.61497 13.9671 6.92813 13.9671 7.2741C13.9671 7.67971 13.8478 8.04954 13.6092 8.38357C13.3765 8.71165 13.0157 8.93533 12.5265 9.05462L14.0655 11.6315H12.8487ZM10.6387 8.32989H11.766C12.1478 8.32989 12.4341 8.23445 12.625 8.04357C12.8218 7.8527 12.9202 7.5962 12.9202 7.2741C12.9202 6.95199 12.8248 6.70147 12.6339 6.52252C12.4431 6.3376 12.1537 6.24515 11.766 6.24515H10.6387V8.32989ZM16.292 6.2362V8.06147H18.4393V8.89357H16.292V10.7994H18.7077V11.6315H15.272V5.4041H18.7077V6.2362H16.292ZM22.013 11.6941C21.5954 11.6941 21.2196 11.6225 20.8856 11.4794C20.5516 11.3302 20.2891 11.1215 20.0983 10.853C19.9074 10.5846 19.8119 10.2715 19.8119 9.91357H20.9035C20.9274 10.182 21.0317 10.4027 21.2167 10.5757C21.4075 10.7486 21.673 10.8352 22.013 10.8352C22.3649 10.8352 22.6393 10.7517 22.8362 10.5846C23.033 10.4117 23.1314 10.1909 23.1314 9.92252C23.1314 9.71378 23.0688 9.54378 22.9435 9.41252C22.8243 9.28126 22.6721 9.17989 22.4872 9.10831C22.3083 9.03673 22.0577 8.95916 21.7356 8.87568C21.33 8.76831 20.999 8.66094 20.7425 8.55357C20.4919 8.44024 20.2772 8.26726 20.0983 8.03462C19.9193 7.80199 19.8298 7.49181 19.8298 7.1041C19.8298 6.7462 19.9193 6.43305 20.0983 6.16462C20.2772 5.8962 20.5277 5.69041 20.8498 5.54726C21.1719 5.4041 21.5448 5.33252 21.9683 5.33252C22.5707 5.33252 23.0628 5.48462 23.4446 5.78884C23.8323 6.08708 24.047 6.49866 24.0888 7.02357H22.9614C22.9435 6.79691 22.8362 6.60305 22.6393 6.44199C22.4425 6.28094 22.183 6.20041 21.8609 6.20041C21.5686 6.20041 21.33 6.27497 21.1451 6.4241C20.9602 6.57322 20.8677 6.78796 20.8677 7.06831C20.8677 7.25918 20.9244 7.41726 21.0377 7.54252C21.157 7.66181 21.3062 7.75726 21.4851 7.82884C21.664 7.90041 21.9086 7.97796 22.2188 8.06147C22.6304 8.1748 22.9644 8.28813 23.2209 8.40147C23.4833 8.5148 23.704 8.69076 23.883 8.92936C24.0679 9.16199 24.1604 9.47515 24.1604 9.86883C24.1604 10.1849 24.0738 10.4833 23.9009 10.7636C23.7338 11.0439 23.4864 11.2706 23.1583 11.4436C22.8362 11.6106 22.4544 11.6941 22.013 11.6941ZM29.3813 5.41305V6.24515H27.7261V11.6315H26.7061V6.24515H25.0419V5.41305H29.3813ZM34.1633 10.3609H31.5596L31.1122 11.6315H30.0475L32.2754 5.4041H33.4564L35.6843 11.6315H34.6106L34.1633 10.3609ZM33.8769 9.52883L32.8659 6.63884L31.8459 9.52883H33.8769ZM37.664 5.41305V9.37673C37.664 9.84799 37.7863 10.2028 38.0308 10.4415C38.2814 10.6801 38.6274 10.7994 39.0687 10.7994C39.5161 10.7994 39.8621 10.6801 40.1066 10.4415C40.3572 10.2028 40.4824 9.84799 40.4824 9.37673V5.41305H41.5024V9.35884C41.5024 9.86588 41.3921 10.2954 41.1714 10.6473C40.9507 10.9992 40.6555 11.2617 40.2856 11.4346C39.9158 11.6076 39.5072 11.6941 39.0598 11.6941C38.6124 11.6941 38.2039 11.6076 37.834 11.4346C37.4702 11.2617 37.1808 10.9992 36.9661 10.6473C36.7514 10.2954 36.644 9.86588 36.644 9.35884V5.41305H37.664ZM46.0605 11.6315L44.6289 9.1441H43.8505V11.6315H42.8305V5.41305H44.9778C45.4551 5.41305 45.8577 5.49655 46.1857 5.66357C46.5198 5.83059 46.7673 6.05428 46.9284 6.33462C47.0954 6.61497 47.1789 6.92813 47.1789 7.2741C47.1789 7.67971 47.0596 8.04954 46.821 8.38357C46.5884 8.71165 46.2275 8.93533 45.7384 9.05462L47.2773 11.6315H46.0605ZM43.8505 8.32989H44.9778C45.3596 8.32989 45.6459 8.23445 45.8368 8.04357C46.0336 7.8527 46.1321 7.5962 46.1321 7.2741C46.1321 6.95199 46.0367 6.70147 45.8457 6.52252C45.6549 6.3376 45.3656 6.24515 44.9778 6.24515H43.8505V8.32989ZM52.2327 10.3609H49.629L49.1817 11.6315H48.1169L50.3448 5.4041H51.5259L53.7538 11.6315H52.6801L52.2327 10.3609ZM51.9464 9.52883L50.9354 6.63884L49.9154 9.52883H51.9464ZM59.8315 11.6315H58.8115L55.7425 6.98778V11.6315H54.7225V5.4041H55.7425L58.8115 10.0388V5.4041H59.8315V11.6315ZM65.1883 5.41305V6.24515H63.533V11.6315H62.513V6.24515H60.8488V5.41305H65.1883Z" fill="black"/>
<g clip-path="url(#clip1_126_269)">
<path d="M69.7895 0H4.47368C2.00294 0 0 2.00294 0 4.47368V12.5263C0 14.9971 2.00294 17 4.47368 17H69.7895C72.2602 17 74.2632 14.9971 74.2632 12.5263V4.47368C74.2632 2.00294 72.2602 0 69.7895 0Z" fill="#FFD596"/>
<path d="M13.3673 10.3609H10.7636L10.3162 11.6315H9.25146L11.4794 5.4041H12.6604L14.8883 11.6315H13.8146L13.3673 10.3609ZM13.0809 9.52883L12.0699 6.63884L11.0499 9.52883H13.0809ZM19.8744 5.41305V6.24515H18.2191V11.6315H17.1991V6.24515H15.5349V5.41305H19.8744ZM24.9248 5.41305V6.24515H23.2695V11.6315H22.2495V6.24515H20.5853V5.41305H24.9248ZM29.1877 11.6315L27.7561 9.1441H26.9777V11.6315H25.9577V5.41305H28.1051C28.5823 5.41305 28.985 5.49655 29.313 5.66357C29.6471 5.83059 29.8946 6.05428 30.0556 6.33462C30.2227 6.61497 30.3061 6.92813 30.3061 7.2741C30.3061 7.67971 30.1869 8.04954 29.9482 8.38357C29.7156 8.71165 29.3548 8.93533 28.8656 9.05462L30.4046 11.6315H29.1877ZM26.9777 8.32989H28.1051C28.4869 8.32989 28.7732 8.23445 28.964 8.04357C29.1609 7.8527 29.2593 7.5962 29.2593 7.2741C29.2593 6.95199 29.1639 6.70147 28.973 6.52252C28.7821 6.3376 28.4929 6.24515 28.1051 6.24515H26.9777V8.32989ZM35.36 10.3609H32.7563L32.3089 11.6315H31.2442L33.4721 5.4041H34.6531L36.881 11.6315H35.8073L35.36 10.3609ZM35.0737 9.52883L34.0626 6.63884L33.0426 9.52883H35.0737ZM37.5097 8.50884C37.5097 7.90041 37.6499 7.35462 37.9302 6.87147C38.2165 6.38831 38.6013 6.01252 39.0844 5.7441C39.5736 5.46971 40.1074 5.33252 40.686 5.33252C41.3481 5.33252 41.9357 5.49655 42.4486 5.82462C42.9676 6.14673 43.3434 6.60603 43.576 7.20252H42.3502C42.1891 6.87445 41.9655 6.62989 41.6791 6.46884C41.3928 6.30778 41.0618 6.22726 40.686 6.22726C40.2744 6.22726 39.9076 6.31971 39.5855 6.50462C39.2634 6.68954 39.0099 6.95497 38.8249 7.30094C38.646 7.64691 38.5565 8.04954 38.5565 8.50884C38.5565 8.9681 38.646 9.37073 38.8249 9.71673C39.0099 10.0627 39.2634 10.3311 39.5855 10.522C39.9076 10.7069 40.2744 10.7994 40.686 10.7994C41.0618 10.7994 41.3928 10.7188 41.6791 10.5578C41.9655 10.3967 42.1891 10.1522 42.3502 9.8241H43.576C43.3434 10.4206 42.9676 10.8799 42.4486 11.202C41.9357 11.5241 41.3481 11.6852 40.686 11.6852C40.1015 11.6852 39.5676 11.5509 39.0844 11.2825C38.6013 11.0081 38.2165 10.6294 37.9302 10.1462C37.6499 9.66305 37.5097 9.11726 37.5097 8.50884ZM48.7873 5.41305V6.24515H47.132V11.6315H46.112V6.24515H44.4478V5.41305H48.7873ZM50.8403 5.41305V11.6315H49.8203V5.41305H50.8403ZM55.0158 11.6941C54.4372 11.6941 53.9033 11.5599 53.4142 11.2915C52.9311 11.0171 52.5464 10.6383 52.26 10.1552C51.9796 9.666 51.8395 9.11726 51.8395 8.50884C51.8395 7.90041 51.9796 7.35462 52.26 6.87147C52.5464 6.38831 52.9311 6.01252 53.4142 5.7441C53.9033 5.46971 54.4372 5.33252 55.0158 5.33252C55.6004 5.33252 56.1342 5.46971 56.6174 5.7441C57.1065 6.01252 57.4912 6.38831 57.7716 6.87147C58.0519 7.35462 58.1921 7.90041 58.1921 8.50884C58.1921 9.11726 58.0519 9.666 57.7716 10.1552C57.4912 10.6383 57.1065 11.0171 56.6174 11.2915C56.1342 11.5599 55.6004 11.6941 55.0158 11.6941ZM55.0158 10.8083C55.4274 10.8083 55.7942 10.7159 56.1164 10.5309C56.4385 10.3401 56.689 10.0717 56.8679 9.72568C57.0528 9.37378 57.1453 8.9681 57.1453 8.50884C57.1453 8.04954 57.0528 7.64691 56.8679 7.30094C56.689 6.95497 56.4385 6.68954 56.1164 6.50462C55.7942 6.31971 55.4274 6.22726 55.0158 6.22726C54.6042 6.22726 54.2374 6.31971 53.9153 6.50462C53.5932 6.68954 53.3396 6.95497 53.1548 7.30094C52.9758 7.64691 52.8863 8.04954 52.8863 8.50884C52.8863 8.9681 52.9758 9.37378 53.1548 9.72568C53.3396 10.0717 53.5932 10.3401 53.9153 10.5309C54.2374 10.7159 54.6042 10.8083 55.0158 10.8083ZM64.3048 11.6315H63.2848L60.2159 6.98778V11.6315H59.1959V5.4041H60.2159L63.2848 10.0388V5.4041H64.3048V11.6315Z" fill="black"/>
</g>
</g>
<defs>
<clipPath id="clip0_126_269">
<rect width="75.1579" height="17" fill="white"/>
</clipPath>
<clipPath id="clip1_126_269">
<rect width="74.2632" height="17" fill="white"/>
</clipPath>
</defs>
</svg>
