<svg width="83" height="19" viewBox="0 0 83 19" fill="none" xmlns="http://www.w3.org/2000/svg">
<rect width="83" height="19" rx="5" fill="#FFD596"/>
<path d="M14.94 11.58H12.03L11.53 13H10.34L12.83 6.04H14.15L16.64 13H15.44L14.94 11.58ZM14.62 10.65L13.49 7.42L12.35 10.65H14.62ZM22.2127 6.05V6.98H20.3627V13H19.2227V6.98H17.3627V6.05H22.2127ZM27.8572 6.05V6.98H26.0072V13H24.8672V6.98H23.0072V6.05H27.8572ZM32.6217 13L31.0217 10.22H30.1517V13H29.0117V6.05H31.4117C31.9451 6.05 32.3951 6.14333 32.7617 6.33C33.1351 6.51667 33.4117 6.76667 33.5917 7.08C33.7784 7.39333 33.8717 7.74333 33.8717 8.13C33.8717 8.58333 33.7384 8.99667 33.4717 9.37C33.2117 9.73667 32.8084 9.98667 32.2617 10.12L33.9817 13H32.6217ZM30.1517 9.31H31.4117C31.8384 9.31 32.1584 9.20333 32.3717 8.99C32.5917 8.77667 32.7017 8.49 32.7017 8.13C32.7017 7.77 32.5951 7.49 32.3817 7.29C32.1684 7.08333 31.8451 6.98 31.4117 6.98H30.1517V9.31ZM39.5201 11.58H36.6101L36.1101 13H34.9201L37.4101 6.04H38.7301L41.2201 13H40.0201L39.5201 11.58ZM39.2001 10.65L38.0701 7.42L36.9301 10.65H39.2001ZM41.9227 9.51C41.9227 8.83 42.0794 8.22 42.3927 7.68C42.7127 7.14 43.1427 6.72 43.6827 6.42C44.2294 6.11333 44.8261 5.96 45.4727 5.96C46.2127 5.96 46.8694 6.14333 47.4427 6.51C48.0227 6.87 48.4427 7.38333 48.7027 8.05H47.3327C47.1527 7.68333 46.9027 7.41 46.5827 7.23C46.2627 7.05 45.8927 6.96 45.4727 6.96C45.0127 6.96 44.6027 7.06333 44.2427 7.27C43.8827 7.47667 43.5994 7.77333 43.3927 8.16C43.1927 8.54667 43.0927 8.99667 43.0927 9.51C43.0927 10.0233 43.1927 10.4733 43.3927 10.86C43.5994 11.2467 43.8827 11.5467 44.2427 11.76C44.6027 11.9667 45.0127 12.07 45.4727 12.07C45.8927 12.07 46.2627 11.98 46.5827 11.8C46.9027 11.62 47.1527 11.3467 47.3327 10.98H48.7027C48.4427 11.6467 48.0227 12.16 47.4427 12.52C46.8694 12.88 46.2127 13.06 45.4727 13.06C44.8194 13.06 44.2227 12.91 43.6827 12.61C43.1427 12.3033 42.7127 11.88 42.3927 11.34C42.0794 10.8 41.9227 10.19 41.9227 9.51ZM54.5271 6.05V6.98H52.6771V13H51.5371V6.98H49.6771V6.05H54.5271ZM56.8216 6.05V13H55.6816V6.05H56.8216ZM61.4884 13.07C60.8417 13.07 60.245 12.92 59.6984 12.62C59.1584 12.3133 58.7284 11.89 58.4084 11.35C58.095 10.8033 57.9384 10.19 57.9384 9.51C57.9384 8.83 58.095 8.22 58.4084 7.68C58.7284 7.14 59.1584 6.72 59.6984 6.42C60.245 6.11333 60.8417 5.96 61.4884 5.96C62.1417 5.96 62.7384 6.11333 63.2784 6.42C63.825 6.72 64.255 7.14 64.5684 7.68C64.8817 8.22 65.0384 8.83 65.0384 9.51C65.0384 10.19 64.8817 10.8033 64.5684 11.35C64.255 11.89 63.825 12.3133 63.2784 12.62C62.7384 12.92 62.1417 13.07 61.4884 13.07ZM61.4884 12.08C61.9484 12.08 62.3584 11.9767 62.7184 11.77C63.0784 11.5567 63.3584 11.2567 63.5584 10.87C63.765 10.4767 63.8684 10.0233 63.8684 9.51C63.8684 8.99667 63.765 8.54667 63.5584 8.16C63.3584 7.77333 63.0784 7.47667 62.7184 7.27C62.3584 7.06333 61.9484 6.96 61.4884 6.96C61.0284 6.96 60.6184 7.06333 60.2584 7.27C59.8984 7.47667 59.615 7.77333 59.4084 8.16C59.2084 8.54667 59.1084 8.99667 59.1084 9.51C59.1084 10.0233 59.2084 10.4767 59.4084 10.87C59.615 11.2567 59.8984 11.5567 60.2584 11.77C60.6184 11.9767 61.0284 12.08 61.4884 12.08ZM71.8702 13H70.7302L67.3002 7.81V13H66.1602V6.04H67.3002L70.7302 11.22V6.04H71.8702V13Z" fill="black"/>
</svg>
