<svg width="86" height="26" viewBox="0 0 86 26" fill="none" xmlns="http://www.w3.org/2000/svg">
<rect width="86" height="26" rx="13" fill="#F18181"/>
<path d="M20.4998 20.0833C24.4119 20.0833 27.5832 16.912 27.5832 13C27.5832 9.08794 24.4119 5.91663 20.4998 5.91663C16.5878 5.91663 13.4165 9.08794 13.4165 13C13.4165 16.912 16.5878 20.0833 20.4998 20.0833Z" stroke="black" stroke-linecap="round" stroke-linejoin="round"/>
<path d="M20.5 8.75V13L23.3333 14.4167" stroke="black" stroke-linecap="round" stroke-linejoin="round"/>
<path d="M35.473 12.661C35.473 11.913 35.6417 11.242 35.979 10.648C36.3163 10.0467 36.7747 9.57733 37.354 9.24C37.9407 8.90267 38.5897 8.734 39.301 8.734C40.137 8.734 40.8667 8.93567 41.49 9.339C42.1133 9.74233 42.568 10.3143 42.854 11.055H41.655C41.4423 10.593 41.1343 10.2373 40.731 9.988C40.335 9.73867 39.8583 9.614 39.301 9.614C38.7657 9.614 38.2853 9.73867 37.86 9.988C37.4347 10.2373 37.101 10.593 36.859 11.055C36.617 11.5097 36.496 12.045 36.496 12.661C36.496 13.2697 36.617 13.805 36.859 14.267C37.101 14.7217 37.4347 15.0737 37.86 15.323C38.2853 15.5723 38.7657 15.697 39.301 15.697C39.8583 15.697 40.335 15.576 40.731 15.334C41.1343 15.0847 41.4423 14.729 41.655 14.267H42.854C42.568 15.0003 42.1133 15.5687 41.49 15.972C40.8667 16.368 40.137 16.566 39.301 16.566C38.5897 16.566 37.9407 16.401 37.354 16.071C36.7747 15.7337 36.3163 15.268 35.979 14.674C35.6417 14.08 35.473 13.409 35.473 12.661ZM45.3451 8.36V16.5H44.3441V8.36H45.3451ZM49.6801 16.599C49.1154 16.599 48.6021 16.4707 48.1401 16.214C47.6854 15.9573 47.3261 15.5943 47.0621 15.125C46.8054 14.6483 46.6771 14.0983 46.6771 13.475C46.6771 12.859 46.8091 12.3163 47.0731 11.847C47.3444 11.3703 47.7111 11.0073 48.1731 10.758C48.6351 10.5013 49.1521 10.373 49.7241 10.373C50.2961 10.373 50.8131 10.5013 51.2751 10.758C51.7371 11.0073 52.1001 11.3667 52.3641 11.836C52.6354 12.3053 52.7711 12.8517 52.7711 13.475C52.7711 14.0983 52.6318 14.6483 52.3531 15.125C52.0818 15.5943 51.7114 15.9573 51.2421 16.214C50.7728 16.4707 50.2521 16.599 49.6801 16.599ZM49.6801 15.719C50.0394 15.719 50.3768 15.6347 50.6921 15.466C51.0074 15.2973 51.2604 15.0443 51.4511 14.707C51.6491 14.3697 51.7481 13.959 51.7481 13.475C51.7481 12.991 51.6528 12.5803 51.4621 12.243C51.2714 11.9057 51.0221 11.6563 50.7141 11.495C50.4061 11.3263 50.0724 11.242 49.7131 11.242C49.3464 11.242 49.0091 11.3263 48.7011 11.495C48.4004 11.6563 48.1584 11.9057 47.9751 12.243C47.7918 12.5803 47.7001 12.991 47.7001 13.475C47.7001 13.9663 47.7881 14.3807 47.9641 14.718C48.1474 15.0553 48.3894 15.3083 48.6901 15.477C48.9908 15.6383 49.3208 15.719 49.6801 15.719ZM56.2212 16.599C55.7592 16.599 55.3449 16.522 54.9782 16.368C54.6116 16.2067 54.3219 15.9867 54.1092 15.708C53.8966 15.422 53.7792 15.0957 53.7572 14.729H54.7912C54.8206 15.0297 54.9599 15.2753 55.2092 15.466C55.4659 15.6567 55.7996 15.752 56.2102 15.752C56.5916 15.752 56.8922 15.6677 57.1122 15.499C57.3322 15.3303 57.4422 15.1177 57.4422 14.861C57.4422 14.597 57.3249 14.4027 57.0902 14.278C56.8556 14.146 56.4926 14.0177 56.0012 13.893C55.5539 13.7757 55.1872 13.6583 54.9012 13.541C54.6226 13.4163 54.3806 13.2367 54.1752 13.002C53.9772 12.76 53.8782 12.4447 53.8782 12.056C53.8782 11.748 53.9699 11.4657 54.1532 11.209C54.3366 10.9523 54.5969 10.7507 54.9342 10.604C55.2716 10.45 55.6566 10.373 56.0892 10.373C56.7566 10.373 57.2956 10.5417 57.7062 10.879C58.1169 11.2163 58.3369 11.6783 58.3662 12.265H57.3652C57.3432 11.9497 57.2149 11.6967 56.9802 11.506C56.7529 11.3153 56.4449 11.22 56.0562 11.22C55.6969 11.22 55.4109 11.297 55.1982 11.451C54.9856 11.605 54.8792 11.8067 54.8792 12.056C54.8792 12.254 54.9416 12.419 55.0662 12.551C55.1982 12.6757 55.3596 12.7783 55.5502 12.859C55.7482 12.9323 56.0196 13.0167 56.3642 13.112C56.7969 13.2293 57.1489 13.3467 57.4202 13.464C57.6916 13.574 57.9226 13.7427 58.1132 13.97C58.3112 14.1973 58.4139 14.4943 58.4212 14.861C58.4212 15.191 58.3296 15.488 58.1462 15.752C57.9629 16.016 57.7026 16.225 57.3652 16.379C57.0352 16.5257 56.6539 16.599 56.2212 16.599ZM65.3343 13.255C65.3343 13.4457 65.3233 13.6473 65.3013 13.86H60.4833C60.52 14.454 60.7216 14.9197 61.0883 15.257C61.4623 15.587 61.9133 15.752 62.4413 15.752C62.874 15.752 63.2333 15.653 63.5193 15.455C63.8126 15.2497 64.018 14.9783 64.1353 14.641H65.2133C65.052 15.2203 64.7293 15.6933 64.2453 16.06C63.7613 16.4193 63.16 16.599 62.4413 16.599C61.8693 16.599 61.356 16.4707 60.9013 16.214C60.454 15.9573 60.102 15.5943 59.8453 15.125C59.5886 14.6483 59.4603 14.0983 59.4603 13.475C59.4603 12.8517 59.585 12.3053 59.8343 11.836C60.0836 11.3667 60.432 11.0073 60.8793 10.758C61.334 10.5013 61.8546 10.373 62.4413 10.373C63.0133 10.373 63.5193 10.4977 63.9593 10.747C64.3993 10.9963 64.7366 11.341 64.9713 11.781C65.2133 12.2137 65.3343 12.705 65.3343 13.255ZM64.3003 13.046C64.3003 12.6647 64.216 12.3383 64.0473 12.067C63.8786 11.7883 63.6476 11.5793 63.3543 11.44C63.0683 11.2933 62.7493 11.22 62.3973 11.22C61.8913 11.22 61.4586 11.3813 61.0993 11.704C60.7473 12.0267 60.5456 12.474 60.4943 13.046H64.3003ZM66.2816 13.464C66.2816 12.848 66.4063 12.309 66.6556 11.847C66.9049 11.3777 67.2459 11.0147 67.6786 10.758C68.1186 10.5013 68.6099 10.373 69.1526 10.373C69.6219 10.373 70.0583 10.483 70.4616 10.703C70.8649 10.9157 71.1729 11.198 71.3856 11.55V8.36H72.3976V16.5H71.3856V15.367C71.1876 15.7263 70.8943 16.0233 70.5056 16.258C70.1169 16.4853 69.6623 16.599 69.1416 16.599C68.6063 16.599 68.1186 16.467 67.6786 16.203C67.2459 15.939 66.9049 15.5687 66.6556 15.092C66.4063 14.6153 66.2816 14.0727 66.2816 13.464ZM71.3856 13.475C71.3856 13.0203 71.2939 12.6243 71.1106 12.287C70.9273 11.9497 70.6779 11.693 70.3626 11.517C70.0546 11.3337 69.7136 11.242 69.3396 11.242C68.9656 11.242 68.6246 11.33 68.3166 11.506C68.0086 11.682 67.7629 11.9387 67.5796 12.276C67.3963 12.6133 67.3046 13.0093 67.3046 13.464C67.3046 13.926 67.3963 14.3293 67.5796 14.674C67.7629 15.0113 68.0086 15.2717 68.3166 15.455C68.6246 15.631 68.9656 15.719 69.3396 15.719C69.7136 15.719 70.0546 15.631 70.3626 15.455C70.6779 15.2717 70.9273 15.0113 71.1106 14.674C71.2939 14.3293 71.3856 13.9297 71.3856 13.475Z" fill="black"/>
</svg>
