<svg width="196" height="57" viewBox="0 0 196 57" fill="none" xmlns="http://www.w3.org/2000/svg">
<rect width="196" height="57" rx="10" fill="#F09C4F"/>
<path d="M36.158 22.734V27.222H41.438V29.268H36.158V33.954H42.098V36H33.65V20.688H42.098V22.734H36.158ZM50.3791 29.862L54.2951 36H51.4571L48.8391 31.886L46.3751 36H43.7571L47.6731 30.038L43.7571 23.878H46.5951L49.2131 27.992L51.6771 23.878H54.2951L50.3791 29.862ZM58.6736 25.66C59.099 25.1027 59.6783 24.6333 60.4116 24.252C61.145 23.8707 61.9736 23.68 62.8976 23.68C63.9536 23.68 64.9143 23.944 65.7796 24.472C66.6596 24.9853 67.349 25.7113 67.8476 26.65C68.3463 27.5887 68.5956 28.6667 68.5956 29.884C68.5956 31.1013 68.3463 32.194 67.8476 33.162C67.349 34.1153 66.6596 34.8633 65.7796 35.406C64.9143 35.934 63.9536 36.198 62.8976 36.198C61.9736 36.198 61.1523 36.0147 60.4336 35.648C59.715 35.2667 59.1283 34.7973 58.6736 34.24V41.764H56.1656V23.878H58.6736V25.66ZM66.0436 29.884C66.0436 29.048 65.8676 28.3293 65.5156 27.728C65.1783 27.112 64.7236 26.65 64.1516 26.342C63.5943 26.0193 62.993 25.858 62.3476 25.858C61.717 25.858 61.1156 26.0193 60.5436 26.342C59.9863 26.6647 59.5316 27.134 59.1796 27.75C58.8423 28.366 58.6736 29.092 58.6736 29.928C58.6736 30.764 58.8423 31.4973 59.1796 32.128C59.5316 32.744 59.9863 33.2133 60.5436 33.536C61.1156 33.8587 61.717 34.02 62.3476 34.02C62.993 34.02 63.5943 33.8587 64.1516 33.536C64.7236 33.1987 65.1783 32.7147 65.5156 32.084C65.8676 31.4533 66.0436 30.72 66.0436 29.884ZM73.5838 19.72V36H71.0758V19.72H73.5838ZM82.1346 36.198C80.9906 36.198 79.9566 35.9413 79.0326 35.428C78.1086 34.9 77.3826 34.1667 76.8546 33.228C76.3266 32.2747 76.0626 31.1747 76.0626 29.928C76.0626 28.696 76.3339 27.6033 76.8766 26.65C77.4192 25.6967 78.1599 24.9633 79.0986 24.45C80.0372 23.9367 81.0859 23.68 82.2446 23.68C83.4032 23.68 84.4519 23.9367 85.3906 24.45C86.3292 24.9633 87.0699 25.6967 87.6126 26.65C88.1552 27.6033 88.4266 28.696 88.4266 29.928C88.4266 31.16 88.1479 32.2527 87.5906 33.206C87.0332 34.1593 86.2706 34.9 85.3026 35.428C84.3492 35.9413 83.2932 36.198 82.1346 36.198ZM82.1346 34.02C82.7799 34.02 83.3812 33.866 83.9386 33.558C84.5106 33.25 84.9726 32.788 85.3246 32.172C85.6766 31.556 85.8526 30.808 85.8526 29.928C85.8526 29.048 85.6839 28.3073 85.3466 27.706C85.0092 27.09 84.5619 26.628 84.0046 26.32C83.4472 26.012 82.8459 25.858 82.2006 25.858C81.5552 25.858 80.9539 26.012 80.3966 26.32C79.8539 26.628 79.4212 27.09 79.0986 27.706C78.7759 28.3073 78.6146 29.048 78.6146 29.928C78.6146 31.2333 78.9446 32.2453 79.6046 32.964C80.2792 33.668 81.1226 34.02 82.1346 34.02ZM93.4139 25.638C93.7805 25.022 94.2645 24.5453 94.8659 24.208C95.4819 23.856 96.2079 23.68 97.0439 23.68V26.276H96.4059C95.4232 26.276 94.6752 26.5253 94.1619 27.024C93.6632 27.5227 93.4139 28.388 93.4139 29.62V36H90.9059V23.878H93.4139V25.638ZM110.459 29.642C110.459 30.0967 110.43 30.5073 110.371 30.874H101.109C101.183 31.842 101.542 32.6193 102.187 33.206C102.833 33.7927 103.625 34.086 104.563 34.086C105.913 34.086 106.866 33.5213 107.423 32.392H110.129C109.763 33.5067 109.095 34.4233 108.127 35.142C107.174 35.846 105.986 36.198 104.563 36.198C103.405 36.198 102.363 35.9413 101.439 35.428C100.53 34.9 99.8112 34.1667 99.2832 33.228C98.7699 32.2747 98.5132 31.1747 98.5132 29.928C98.5132 28.6813 98.7626 27.5887 99.2612 26.65C99.7746 25.6967 100.486 24.9633 101.395 24.45C102.319 23.9367 103.375 23.68 104.563 23.68C105.707 23.68 106.727 23.9293 107.621 24.428C108.516 24.9267 109.213 25.6307 109.711 26.54C110.21 27.4347 110.459 28.4687 110.459 29.642ZM107.841 28.85C107.827 27.926 107.497 27.1853 106.851 26.628C106.206 26.0707 105.407 25.792 104.453 25.792C103.588 25.792 102.847 26.0707 102.231 26.628C101.615 27.1707 101.249 27.9113 101.131 28.85H107.841ZM124.758 23.68C125.712 23.68 126.562 23.878 127.31 24.274C128.073 24.67 128.667 25.2567 129.092 26.034C129.518 26.8113 129.73 27.75 129.73 28.85V36H127.244V29.224C127.244 28.1387 126.973 27.31 126.43 26.738C125.888 26.1513 125.147 25.858 124.208 25.858C123.27 25.858 122.522 26.1513 121.964 26.738C121.422 27.31 121.15 28.1387 121.15 29.224V36H118.642V23.878H121.15V25.264C121.561 24.7653 122.082 24.3767 122.712 24.098C123.358 23.8193 124.04 23.68 124.758 23.68ZM138.187 36.198C137.043 36.198 136.009 35.9413 135.085 35.428C134.161 34.9 133.435 34.1667 132.907 33.228C132.379 32.2747 132.115 31.1747 132.115 29.928C132.115 28.696 132.387 27.6033 132.929 26.65C133.472 25.6967 134.213 24.9633 135.151 24.45C136.09 23.9367 137.139 23.68 138.297 23.68C139.456 23.68 140.505 23.9367 141.443 24.45C142.382 24.9633 143.123 25.6967 143.665 26.65C144.208 27.6033 144.479 28.696 144.479 29.928C144.479 31.16 144.201 32.2527 143.643 33.206C143.086 34.1593 142.323 34.9 141.355 35.428C140.402 35.9413 139.346 36.198 138.187 36.198ZM138.187 34.02C138.833 34.02 139.434 33.866 139.991 33.558C140.563 33.25 141.025 32.788 141.377 32.172C141.729 31.556 141.905 30.808 141.905 29.928C141.905 29.048 141.737 28.3073 141.399 27.706C141.062 27.09 140.615 26.628 140.057 26.32C139.5 26.012 138.899 25.858 138.253 25.858C137.608 25.858 137.007 26.012 136.449 26.32C135.907 26.628 135.474 27.09 135.151 27.706C134.829 28.3073 134.667 29.048 134.667 29.928C134.667 31.2333 134.997 32.2453 135.657 32.964C136.332 33.668 137.175 34.02 138.187 34.02ZM163.239 23.878L159.477 36H156.837L154.395 27.046L151.953 36H149.313L145.529 23.878H148.081L150.611 33.624L153.185 23.878H155.803L158.267 33.58L160.775 23.878H163.239Z" fill="white"/>
</svg>
