<svg width="85" height="36" viewBox="0 0 85 36" fill="none" xmlns="http://www.w3.org/2000/svg">
<rect x="0.5" y="0.5" width="84" height="35" rx="9.5" fill="#F09C4F" stroke="#E0E0E0"/>
<path d="M28.916 20.012H24.842L24.142 22H22.476L25.962 12.256H27.81L31.296 22H29.616L28.916 20.012ZM28.468 18.71L26.886 14.188L25.29 18.71H28.468ZM34.4077 15.42C34.6784 15.0653 35.0471 14.7667 35.5137 14.524C35.9804 14.2813 36.5077 14.16 37.0957 14.16C37.7677 14.16 38.3791 14.328 38.9297 14.664C39.4897 14.9907 39.9284 15.4527 40.2457 16.05C40.5631 16.6473 40.7217 17.3333 40.7217 18.108C40.7217 18.8827 40.5631 19.578 40.2457 20.194C39.9284 20.8007 39.4897 21.2767 38.9297 21.622C38.3791 21.958 37.7677 22.126 37.0957 22.126C36.5077 22.126 35.9851 22.0093 35.5277 21.776C35.0704 21.5333 34.6971 21.2347 34.4077 20.88V25.668H32.8117V14.286H34.4077V15.42ZM39.0977 18.108C39.0977 17.576 38.9857 17.1187 38.7617 16.736C38.5471 16.344 38.2577 16.05 37.8937 15.854C37.5391 15.6487 37.1564 15.546 36.7457 15.546C36.3444 15.546 35.9617 15.6487 35.5977 15.854C35.2431 16.0593 34.9537 16.358 34.7297 16.75C34.5151 17.142 34.4077 17.604 34.4077 18.136C34.4077 18.668 34.5151 19.1347 34.7297 19.536C34.9537 19.928 35.2431 20.2267 35.5977 20.432C35.9617 20.6373 36.3444 20.74 36.7457 20.74C37.1564 20.74 37.5391 20.6373 37.8937 20.432C38.2577 20.2173 38.5471 19.9093 38.7617 19.508C38.9857 19.1067 39.0977 18.64 39.0977 18.108ZM43.896 15.42C44.1667 15.0653 44.5353 14.7667 45.002 14.524C45.4687 14.2813 45.996 14.16 46.584 14.16C47.256 14.16 47.8673 14.328 48.418 14.664C48.978 14.9907 49.4167 15.4527 49.734 16.05C50.0513 16.6473 50.21 17.3333 50.21 18.108C50.21 18.8827 50.0513 19.578 49.734 20.194C49.4167 20.8007 48.978 21.2767 48.418 21.622C47.8673 21.958 47.256 22.126 46.584 22.126C45.996 22.126 45.4733 22.0093 45.016 21.776C44.5587 21.5333 44.1853 21.2347 43.896 20.88V25.668H42.3V14.286H43.896V15.42ZM48.586 18.108C48.586 17.576 48.474 17.1187 48.25 16.736C48.0353 16.344 47.746 16.05 47.382 15.854C47.0273 15.6487 46.6447 15.546 46.234 15.546C45.8327 15.546 45.45 15.6487 45.086 15.854C44.7313 16.0593 44.442 16.358 44.218 16.75C44.0033 17.142 43.896 17.604 43.896 18.136C43.896 18.668 44.0033 19.1347 44.218 19.536C44.442 19.928 44.7313 20.2267 45.086 20.432C45.45 20.6373 45.8327 20.74 46.234 20.74C46.6447 20.74 47.0273 20.6373 47.382 20.432C47.746 20.2173 48.0353 19.9093 48.25 19.508C48.474 19.1067 48.586 18.64 48.586 18.108ZM53.3843 11.64V22H51.7883V11.64H53.3843ZM62.4237 14.286L57.6917 25.626H56.0397L57.6077 21.874L54.5697 14.286H56.3477L58.5177 20.166L60.7717 14.286H62.4237Z" fill="white"/>
</svg>
