<svg width="116" height="40" viewBox="0 0 116 40" fill="none" xmlns="http://www.w3.org/2000/svg">
<path d="M32.9881 18.2046H32.2497V18.1666H23.9997V21.8333H29.1802C28.4244 23.9677 26.3935 25.4999 23.9997 25.4999C20.9623 25.4999 18.4997 23.0373 18.4997 19.9999C18.4997 16.9625 20.9623 14.4999 23.9997 14.4999C25.4017 14.4999 26.6773 15.0288 27.6485 15.8928L30.2413 13.3C28.6041 11.7742 26.4142 10.8333 23.9997 10.8333C18.9374 10.8333 14.833 14.9376 14.833 19.9999C14.833 25.0622 18.9374 29.1666 23.9997 29.1666C29.062 29.1666 33.1663 25.0622 33.1663 19.9999C33.1663 19.3853 33.1031 18.7853 32.9881 18.2046Z" fill="#FFC107"/>
<path d="M15.8906 15.7333L18.9023 17.942C19.7172 15.9244 21.6908 14.4999 24.0004 14.4999C25.4024 14.4999 26.678 15.0288 27.6492 15.8928L30.242 13.3C28.6048 11.7742 26.4149 10.8333 24.0004 10.8333C20.4795 10.8333 17.426 12.821 15.8906 15.7333Z" fill="#FF3D00"/>
<path d="M24.0005 29.1667C26.3682 29.1667 28.5196 28.2606 30.1463 26.7871L27.3092 24.3863C26.3888 25.0834 25.2448 25.5001 24.0005 25.5001C21.6162 25.5001 19.5918 23.9798 18.8291 21.8582L15.8398 24.1613C17.3569 27.1299 20.4378 29.1667 24.0005 29.1667Z" fill="#4CAF50"/>
<path d="M32.9884 18.2048H32.25V18.1667H24V21.8334H29.1805C28.8175 22.8587 28.158 23.7428 27.3073 24.3868L27.3087 24.3859L30.1458 26.7866C29.945 26.969 33.1667 24.5834 33.1667 20.0001C33.1667 19.3855 33.1034 18.7855 32.9884 18.2048Z" fill="#1976D2"/>
<path d="M52.96 26.112C52.1813 26.112 51.4773 25.9787 50.848 25.712C50.2293 25.4453 49.7387 25.0613 49.376 24.56C49.0133 24.0587 48.8267 23.4667 48.816 22.784H51.216C51.248 23.2427 51.408 23.6053 51.696 23.872C51.9947 24.1387 52.4 24.272 52.912 24.272C53.4347 24.272 53.8453 24.1493 54.144 23.904C54.4427 23.648 54.592 23.3173 54.592 22.912C54.592 22.5813 54.4907 22.3093 54.288 22.096C54.0853 21.8827 53.8293 21.7173 53.52 21.6C53.2213 21.472 52.8053 21.3333 52.272 21.184C51.5467 20.9707 50.9547 20.7627 50.496 20.56C50.048 20.3467 49.6587 20.032 49.328 19.616C49.008 19.1893 48.848 18.624 48.848 17.92C48.848 17.2587 49.0133 16.6827 49.344 16.192C49.6747 15.7013 50.1387 15.328 50.736 15.072C51.3333 14.8053 52.016 14.672 52.784 14.672C53.936 14.672 54.8693 14.9547 55.584 15.52C56.3093 16.0747 56.7093 16.8533 56.784 17.856H54.32C54.2987 17.472 54.1333 17.1573 53.824 16.912C53.5253 16.656 53.1253 16.528 52.624 16.528C52.1867 16.528 51.8347 16.64 51.568 16.864C51.312 17.088 51.184 17.4133 51.184 17.84C51.184 18.1387 51.28 18.3893 51.472 18.592C51.6747 18.784 51.92 18.944 52.208 19.072C52.5067 19.1893 52.9227 19.328 53.456 19.488C54.1813 19.7013 54.7733 19.9147 55.232 20.128C55.6907 20.3413 56.0853 20.6613 56.416 21.088C56.7467 21.5147 56.912 22.0747 56.912 22.768C56.912 23.3653 56.7573 23.92 56.448 24.432C56.1387 24.944 55.6853 25.3547 55.088 25.664C54.4907 25.9627 53.7813 26.112 52.96 26.112ZM59.99 16.08C59.5953 16.08 59.2647 15.9573 58.998 15.712C58.742 15.456 58.614 15.1413 58.614 14.768C58.614 14.3947 58.742 14.0853 58.998 13.84C59.2647 13.584 59.5953 13.456 59.99 13.456C60.3847 13.456 60.71 13.584 60.966 13.84C61.2327 14.0853 61.366 14.3947 61.366 14.768C61.366 15.1413 61.2327 15.456 60.966 15.712C60.71 15.9573 60.3847 16.08 59.99 16.08ZM61.094 17.136V26H58.854V17.136H61.094ZM66.7791 16.992C67.4405 16.992 68.0218 17.1253 68.5231 17.392C69.0245 17.648 69.4191 17.984 69.7071 18.4V17.136H71.9631V26.064C71.9631 26.8853 71.7978 27.616 71.4671 28.256C71.1365 28.9067 70.6405 29.4187 69.9791 29.792C69.3178 30.176 68.5178 30.368 67.5791 30.368C66.3205 30.368 65.2858 30.0747 64.4751 29.488C63.6751 28.9013 63.2218 28.1013 63.1151 27.088H65.3391C65.4565 27.4933 65.7071 27.8133 66.0911 28.048C66.4858 28.2933 66.9605 28.416 67.5151 28.416C68.1658 28.416 68.6938 28.2187 69.0991 27.824C69.5045 27.44 69.7071 26.8533 69.7071 26.064V24.688C69.4191 25.104 69.0191 25.4507 68.5071 25.728C68.0058 26.0053 67.4298 26.144 66.7791 26.144C66.0325 26.144 65.3498 25.952 64.7311 25.568C64.1125 25.184 63.6218 24.6453 63.2591 23.952C62.9071 23.248 62.7311 22.4427 62.7311 21.536C62.7311 20.64 62.9071 19.8453 63.2591 19.152C63.6218 18.4587 64.1071 17.9253 64.7151 17.552C65.3338 17.1787 66.0218 16.992 66.7791 16.992ZM69.7071 21.568C69.7071 21.024 69.6005 20.56 69.3871 20.176C69.1738 19.7813 68.8858 19.4827 68.5231 19.28C68.1605 19.0667 67.7711 18.96 67.3551 18.96C66.9391 18.96 66.5551 19.0613 66.2031 19.264C65.8511 19.4667 65.5631 19.7653 65.3391 20.16C65.1258 20.544 65.0191 21.0027 65.0191 21.536C65.0191 22.0693 65.1258 22.5387 65.3391 22.944C65.5631 23.3387 65.8511 23.6427 66.2031 23.856C66.5658 24.0693 66.9498 24.176 67.3551 24.176C67.7711 24.176 68.1605 24.0747 68.5231 23.872C68.8858 23.6587 69.1738 23.36 69.3871 22.976C69.6005 22.5813 69.7071 22.112 69.7071 21.568ZM79.0629 17.008C80.1189 17.008 80.9722 17.344 81.6229 18.016C82.2735 18.6773 82.5989 19.6053 82.5989 20.8V26H80.3589V21.104C80.3589 20.4 80.1829 19.8613 79.8309 19.488C79.4789 19.104 78.9989 18.912 78.3909 18.912C77.7722 18.912 77.2815 19.104 76.9189 19.488C76.5669 19.8613 76.3909 20.4 76.3909 21.104V26H74.1509V17.136H76.3909V18.24C76.6895 17.856 77.0682 17.5573 77.5269 17.344C77.9962 17.12 78.5082 17.008 79.0629 17.008ZM89.6775 16.08C89.2828 16.08 88.9522 15.9573 88.6855 15.712C88.4295 15.456 88.3015 15.1413 88.3015 14.768C88.3015 14.3947 88.4295 14.0853 88.6855 13.84C88.9522 13.584 89.2828 13.456 89.6775 13.456C90.0722 13.456 90.3975 13.584 90.6535 13.84C90.9202 14.0853 91.0535 14.3947 91.0535 14.768C91.0535 15.1413 90.9202 15.456 90.6535 15.712C90.3975 15.9573 90.0722 16.08 89.6775 16.08ZM90.7815 17.136V26H88.5415V17.136H90.7815ZM97.9066 17.008C98.9626 17.008 99.816 17.344 100.467 18.016C101.117 18.6773 101.443 19.6053 101.443 20.8V26H99.2026V21.104C99.2026 20.4 99.0266 19.8613 98.6746 19.488C98.3226 19.104 97.8426 18.912 97.2346 18.912C96.616 18.912 96.1253 19.104 95.7626 19.488C95.4106 19.8613 95.2346 20.4 95.2346 21.104V26H92.9946V17.136H95.2346V18.24C95.5333 17.856 95.912 17.5573 96.3706 17.344C96.84 17.12 97.352 17.008 97.9066 17.008Z" fill="white"/>
<rect x="1" y="1" width="114" height="38" rx="9" stroke="white" stroke-width="2"/>
</svg>
