<svg width="46" height="17" viewBox="0 0 46 17" fill="none" xmlns="http://www.w3.org/2000/svg">
<g clip-path="url(#clip0_126_322)">
<path d="M41.1579 0H4.47368C2.00294 0 0 2.00294 0 4.47368V12.5263C0 14.9971 2.00294 17 4.47368 17H41.1579C43.6286 17 45.6316 14.9971 45.6316 12.5263V4.47368C45.6316 2.00294 43.6286 0 41.1579 0Z" fill="#FD95FF"/>
<path d="M14.5844 5.41305V11.6315H13.5644V8.91147H10.6387V11.6315H9.61865V5.41305H10.6387V8.07936H13.5644V5.41305H14.5844ZM18.7636 11.6941C18.185 11.6941 17.6511 11.5599 17.162 11.2915C16.6788 11.0171 16.2941 10.6383 16.0078 10.1552C15.7274 9.666 15.5873 9.11726 15.5873 8.50884C15.5873 7.90041 15.7274 7.35462 16.0078 6.87147C16.2941 6.38831 16.6788 6.01252 17.162 5.7441C17.6511 5.46971 18.185 5.33252 18.7636 5.33252C19.3481 5.33252 19.882 5.46971 20.3652 5.7441C20.8542 6.01252 21.239 6.38831 21.5194 6.87147C21.7997 7.35462 21.9399 7.90041 21.9399 8.50884C21.9399 9.11726 21.7997 9.666 21.5194 10.1552C21.239 10.6383 20.8542 11.0171 20.3652 11.2915C19.882 11.5599 19.3481 11.6941 18.7636 11.6941ZM18.7636 10.8083C19.1752 10.8083 19.542 10.7159 19.8641 10.5309C20.1862 10.3401 20.4367 10.0717 20.6157 9.72568C20.8005 9.37378 20.8931 8.9681 20.8931 8.50884C20.8931 8.04954 20.8005 7.64691 20.6157 7.30094C20.4367 6.95497 20.1862 6.68954 19.8641 6.50462C19.542 6.31971 19.1752 6.22726 18.7636 6.22726C18.352 6.22726 17.9852 6.31971 17.6631 6.50462C17.3409 6.68954 17.0874 6.95497 16.9025 7.30094C16.7236 7.64691 16.6341 8.04954 16.6341 8.50884C16.6341 8.9681 16.7236 9.37378 16.9025 9.72568C17.0874 10.0717 17.3409 10.3401 17.6631 10.5309C17.9852 10.7159 18.352 10.8083 18.7636 10.8083ZM26.961 5.41305V6.24515H25.3057V11.6315H24.2857V6.24515H22.6215V5.41305H26.961ZM29.014 6.2362V8.06147H31.1613V8.89357H29.014V10.7994H31.4297V11.6315H27.994V5.4041H31.4297V6.2362H29.014ZM33.7061 10.8083H35.8088V11.6315H32.6861V5.41305H33.7061V10.8083Z" fill="black"/>
</g>
<defs>
<clipPath id="clip0_126_322">
<rect width="45.6316" height="17" fill="white"/>
</clipPath>
</defs>
</svg>
