<svg width="51" height="19" viewBox="0 0 51 19" fill="none" xmlns="http://www.w3.org/2000/svg">
<rect width="51" height="19" rx="5" fill="#FD95FF"/>
<path d="M16.3 6.05V13H15.16V9.96H11.89V13H10.75V6.05H11.89V9.03H15.16V6.05H16.3ZM20.9708 13.07C20.3241 13.07 19.7274 12.92 19.1808 12.62C18.6408 12.3133 18.2108 11.89 17.8908 11.35C17.5774 10.8033 17.4208 10.19 17.4208 9.51C17.4208 8.83 17.5774 8.22 17.8908 7.68C18.2108 7.14 18.6408 6.72 19.1808 6.42C19.7274 6.11333 20.3241 5.96 20.9708 5.96C21.6241 5.96 22.2208 6.11333 22.7608 6.42C23.3074 6.72 23.7374 7.14 24.0508 7.68C24.3641 8.22 24.5208 8.83 24.5208 9.51C24.5208 10.19 24.3641 10.8033 24.0508 11.35C23.7374 11.89 23.3074 12.3133 22.7608 12.62C22.2208 12.92 21.6241 13.07 20.9708 13.07ZM20.9708 12.08C21.4308 12.08 21.8408 11.9767 22.2008 11.77C22.5608 11.5567 22.8408 11.2567 23.0408 10.87C23.2474 10.4767 23.3508 10.0233 23.3508 9.51C23.3508 8.99667 23.2474 8.54667 23.0408 8.16C22.8408 7.77333 22.5608 7.47667 22.2008 7.27C21.8408 7.06333 21.4308 6.96 20.9708 6.96C20.5108 6.96 20.1008 7.06333 19.7408 7.27C19.3808 7.47667 19.0974 7.77333 18.8908 8.16C18.6908 8.54667 18.5908 8.99667 18.5908 9.51C18.5908 10.0233 18.6908 10.4767 18.8908 10.87C19.0974 11.2567 19.3808 11.5567 19.7408 11.77C20.1008 11.9767 20.5108 12.08 20.9708 12.08ZM30.1326 6.05V6.98H28.2826V13H27.1426V6.98H25.2826V6.05H30.1326ZM32.4271 6.97V9.01H34.8271V9.94H32.4271V12.07H35.1271V13H31.2871V6.04H35.1271V6.97H32.4271ZM37.6713 12.08H40.0213V13H36.5313V6.05H37.6713V12.08Z" fill="black"/>
</svg>
