<svg width="22" height="22" viewBox="0 0 22 22" fill="none" xmlns="http://www.w3.org/2000/svg">
<path d="M5.39874 13.0318L5.39873 13.0318C4.40852 11.919 3.729 10.6516 3.729 9.19398C3.729 7.1961 5.49859 5.5625 7.69984 5.5625C8.77468 5.5625 9.75352 6.06848 10.4802 6.76668L10.9998 7.26591L11.5195 6.76668C12.2462 6.06848 13.225 5.5625 14.2998 5.5625C16.5011 5.5625 18.2707 7.1961 18.2707 9.19398C18.2707 10.6516 17.5912 11.919 16.6009 13.0318L16.6009 13.0318C15.6105 14.1448 14.314 15.0979 13.0902 15.9262L13.0902 15.9262L10.9998 17.3412L8.90948 15.9262L8.90946 15.9262C7.68567 15.0979 6.38914 14.1448 5.39874 13.0318ZM11.0349 17.365L11.0349 17.3649L11.0349 17.365Z" fill="white" stroke="black" stroke-width="1.5"/>
</svg>
