<svg width="18" height="15" viewBox="0 0 18 15" fill="none" xmlns="http://www.w3.org/2000/svg">
<path d="M2.83878 9.26183L2.83877 9.26182C1.75221 8.04081 1 6.6427 1 5.0298C1 2.80688 2.96701 1 5.4 1C6.5943 1 7.67825 1.56199 8.48038 2.33266L9 2.83189L9.51962 2.33266C10.3218 1.56199 11.4057 1 12.6 1C15.033 1 17 2.80687 17 5.0298C17 6.64271 16.2478 8.04082 15.1612 9.2618L15.1612 9.26182C14.0748 10.4827 12.6544 11.5264 11.3186 12.4305L11.3186 12.4305L9 14L6.68139 12.4305L6.68137 12.4305C5.34559 11.5264 3.92519 10.4827 2.83878 9.26183Z" fill="white" stroke="black" stroke-width="1.5"/>
</svg>
