<svg width="20" height="20" viewBox="0 0 20 20" fill="none" xmlns="http://www.w3.org/2000/svg">
<path d="M9.88235 17.2581C9.39506 17.2581 9 17.648 9 18.129C9 18.61 9.39506 19 9.88235 19H16.9412C18.0782 19 19 18.0901 19 16.9677V3.03226C19 1.90987 18.0782 1 16.9412 1H9.88235C9.39506 1 9 1.38995 9 1.87097C9 2.35199 9.39506 2.74194 9.88235 2.74194H16.9412C17.1036 2.74194 17.2353 2.87192 17.2353 3.03226V16.9677C17.2353 17.1281 17.1036 17.2581 16.9412 17.2581H9.88235Z" fill="black"/>
<path fill-rule="evenodd" clip-rule="evenodd" d="M13.5004 13.0063C14.3285 13.0063 15 12.4146 15 11.6845V9.31544C15 8.58542 14.3285 7.9937 13.5004 7.9937H7.9666C7.95878 7.91606 7.95058 7.83844 7.94203 7.76084L7.87721 7.17305C7.77832 6.27626 6.69787 5.7392 5.77598 6.12859C3.8154 6.95674 2.04051 8.09 0.536697 9.47384L0.417687 9.58339C-0.139227 10.0959 -0.139227 10.9041 0.417675 11.4166L0.536697 11.5261C2.04051 12.91 3.8154 14.0433 5.77598 14.8714C6.69785 15.2608 7.77832 14.7237 7.87721 13.8269L7.94203 13.2391C7.95058 13.1615 7.95878 13.0839 7.9666 13.0063H13.5004ZM7.13236 11.4202C6.8128 11.4202 6.53029 11.5675 6.37051 11.7911C6.29271 11.9 6.24402 12.027 6.23432 12.1639C6.21256 12.4715 6.18475 12.7787 6.15091 13.0857L6.1321 13.2564C4.88915 12.6917 3.73486 11.9887 2.69739 11.165C2.42822 10.9513 2.16692 10.7296 1.91398 10.5C3.14192 9.38544 4.56668 8.45472 6.1321 7.74366L6.15091 7.91428C6.18475 8.22122 6.21256 8.52853 6.23432 8.83613C6.26391 9.25412 6.65717 9.57979 7.13236 9.57979H13.2004V11.4202H7.13236Z" fill="black"/>
</svg>
