<svg width="52" height="52" viewBox="0 0 52 52" fill="none" xmlns="http://www.w3.org/2000/svg">
<path d="M14.5304 9.36H0V0H39.232V9.36H24.7016V52H14.5304V9.36Z" fill="#F09C4F"/>
<path d="M28.7461 16.1119H31.2841V18.073C31.4649 17.3203 31.8136 16.7524 32.3302 16.3694C32.8598 15.9864 33.5508 15.8213 34.4032 15.8742V18.39H34.0351C33.2602 18.39 32.6209 18.6409 32.1171 19.1427C31.6134 19.6314 31.3616 20.2983 31.3616 21.1435V26.4128H28.7461V16.1119ZM35.2734 16.1119H37.8888V26.4128H35.2734V16.1119ZM35.0021 13.6753C35.0021 13.2395 35.1507 12.8697 35.4477 12.566C35.7577 12.2622 36.1323 12.1104 36.5714 12.1104C37.0235 12.1104 37.398 12.2622 37.6951 12.566C37.9922 12.8697 38.1407 13.2395 38.1407 13.6753C38.1407 14.1243 37.9922 14.5007 37.6951 14.8044C37.398 15.1082 37.0235 15.2601 36.5714 15.2601C36.1323 15.2601 35.7577 15.1082 35.4477 14.8044C35.1507 14.4875 35.0021 14.1111 35.0021 13.6753ZM39.4358 16.1119H42.0125V17.7759C42.3095 17.1684 42.7099 16.7062 43.2136 16.3892C43.7174 16.0591 44.389 15.894 45.2285 15.894C46.1326 15.894 46.9657 16.1383 47.7277 16.6269C48.4898 17.1156 49.0904 17.7759 49.5295 18.6079C49.9816 19.4267 50.2076 20.3247 50.2076 21.302C50.2076 22.2792 49.9816 23.1773 49.5295 23.9961C49.0904 24.8149 48.4898 25.4686 47.7277 25.9572C46.9657 26.4326 46.1326 26.6703 45.2285 26.6703C44.4148 26.6703 43.7497 26.5185 43.233 26.2147C42.7293 25.8978 42.3354 25.4554 42.0512 24.8875V30.3747H39.4358V16.1119ZM41.9737 21.302C41.9737 21.8434 42.09 22.3387 42.3224 22.7877C42.5549 23.2367 42.8843 23.5933 43.3105 23.8574C43.7497 24.1215 44.2469 24.2536 44.8023 24.2536C45.3448 24.2536 45.8227 24.1215 46.236 23.8574C46.6622 23.5801 46.9915 23.2169 47.224 22.7679C47.4694 22.3057 47.5921 21.8104 47.5921 21.2822C47.5921 20.7407 47.4759 20.2455 47.2434 19.7964C47.0109 19.3474 46.6816 18.9909 46.2553 18.7267C45.8291 18.4494 45.3448 18.3107 44.8023 18.3107C44.2469 18.3107 43.7497 18.4494 43.3105 18.7267C42.8843 18.9909 42.5549 19.354 42.3224 19.8163C42.09 20.2653 41.9737 20.7605 41.9737 21.302Z" fill="#F09C4F"/>
<path d="M28.7454 37.5721H31.3608V47.873H28.7454V37.5721ZM28.4741 35.1355C28.4741 34.6997 28.6227 34.3299 28.9197 34.0262C29.2297 33.7224 29.6043 33.5706 30.0434 33.5706C30.4955 33.5706 30.87 33.7224 31.1671 34.0262C31.4641 34.3299 31.6127 34.6997 31.6127 35.1355C31.6127 35.5845 31.4641 35.9609 31.1671 36.2647C30.87 36.5684 30.4955 36.7203 30.0434 36.7203C29.6043 36.7203 29.2297 36.5684 28.9197 36.2647C28.6227 35.9477 28.4741 35.5713 28.4741 35.1355ZM32.9077 37.5721H35.4845V39.2361C35.7815 38.6286 36.1819 38.1664 36.6856 37.8494C37.1893 37.5193 37.861 37.3542 38.7005 37.3542C39.6046 37.3542 40.4377 37.5985 41.1997 38.0871C41.9618 38.5758 42.5623 39.2361 43.0015 40.0681C43.4535 40.8869 43.6796 41.7849 43.6796 42.7622C43.6796 43.7394 43.4535 44.6375 43.0015 45.4563C42.5623 46.2751 41.9618 46.9288 41.1997 47.4174C40.4377 47.8928 39.6046 48.1306 38.7005 48.1306C37.8868 48.1306 37.2216 47.9787 36.705 47.6749C36.2013 47.358 35.8073 46.9156 35.5232 46.3477V51.8349H32.9077V37.5721ZM35.4457 42.7622C35.4457 43.3036 35.5619 43.7989 35.7944 44.2479C36.0269 44.6969 36.3563 45.0535 36.7825 45.3176C37.2216 45.5817 37.7189 45.7138 38.2743 45.7138C38.8167 45.7138 39.2946 45.5817 39.7079 45.3176C40.1342 45.0403 40.4635 44.6771 40.696 44.2281C40.9414 43.7659 41.0641 43.2706 41.0641 42.7424C41.0641 42.2009 40.9479 41.7057 40.7154 41.2567C40.4829 40.8076 40.1535 40.4511 39.7273 40.1869C39.3011 39.9096 38.8167 39.7709 38.2743 39.7709C37.7189 39.7709 37.2216 39.9096 36.7825 40.1869C36.3563 40.4511 36.0269 40.8142 35.7944 41.2765C35.5619 41.7255 35.4457 42.2207 35.4457 42.7622ZM48.0865 48.1306C46.3945 48.1306 44.9996 47.5297 43.9017 46.3279L45.6647 44.6837C46.4009 45.5289 47.1888 45.9515 48.0283 45.9515C48.4675 45.9515 48.8098 45.8525 49.0552 45.6544C49.3006 45.4563 49.4233 45.1987 49.4233 44.8818C49.4233 44.5913 49.3006 44.3667 49.0552 44.2083C48.8227 44.0366 48.3319 43.8583 47.5827 43.6734C46.3557 43.3697 45.5291 42.9537 45.1029 42.4254C44.6896 41.8972 44.4829 41.2434 44.4829 40.4643C44.4829 39.5398 44.8187 38.7871 45.4904 38.206C46.162 37.6117 47.079 37.3146 48.2415 37.3146C49.081 37.3146 49.7849 37.4466 50.3532 37.7107C50.9344 37.9749 51.4769 38.4371 51.9806 39.0974L50.082 40.5831C49.6299 39.8436 49.0358 39.4738 48.2996 39.4738C47.925 39.4738 47.6215 39.553 47.389 39.7115C47.1565 39.8568 47.0403 40.0813 47.0403 40.385C47.0403 40.5963 47.1242 40.7812 47.2921 40.9397C47.473 41.085 47.8411 41.2302 48.3964 41.3755C49.7784 41.7453 50.7213 42.2009 51.225 42.7424C51.7417 43.2838 52 43.9706 52 44.8026C52 45.4233 51.8256 45.9911 51.4769 46.5062C51.1411 47.008 50.6761 47.4042 50.082 47.6947C49.4878 47.9853 48.8227 48.1306 48.0865 48.1306Z" fill="#F09C4F"/>
</svg>
