<svg width="17" height="17" viewBox="0 0 17 17" fill="none" xmlns="http://www.w3.org/2000/svg">
<path d="M14 7.31818C14 11.4545 8.5 15 8.5 15C8.5 15 3 11.4545 3 7.31818C3 5.90771 3.57946 4.55501 4.61091 3.55766C5.64236 2.56031 7.04131 2 8.5 2C9.95869 2 11.3576 2.56031 12.3891 3.55766C13.4205 4.55501 14 5.90771 14 7.31818Z" stroke="#8E8E8E" stroke-linecap="round" stroke-linejoin="round"/>
<path d="M8.5 9C9.32843 9 10 8.10457 10 7C10 5.89543 9.32843 5 8.5 5C7.67157 5 7 5.89543 7 7C7 8.10457 7.67157 9 8.5 9Z" stroke="#8E8E8E" stroke-linecap="round" stroke-linejoin="round"/>
</svg>
