<svg width="190" height="40" viewBox="0 0 190 40" fill="none" xmlns="http://www.w3.org/2000/svg">
<rect width="190" height="40" rx="10" fill="black"/>
<path d="M60.26 14.62V25H58.895V17.26L55.445 25H54.485L51.02 17.245V25H49.655V14.62H51.125L54.965 23.2L58.805 14.62H60.26ZM66.1599 25.135C65.3899 25.135 64.6899 24.96 64.0599 24.61C63.4399 24.26 62.9499 23.765 62.5899 23.125C62.2399 22.475 62.0649 21.725 62.0649 20.875C62.0649 20.035 62.2449 19.295 62.6049 18.655C62.9749 18.005 63.4749 17.51 64.1049 17.17C64.7349 16.82 65.4399 16.645 66.2199 16.645C66.9999 16.645 67.7049 16.82 68.3349 17.17C68.9649 17.51 69.4599 18 69.8199 18.64C70.1899 19.28 70.3749 20.025 70.3749 20.875C70.3749 21.725 70.1849 22.475 69.8049 23.125C69.4349 23.765 68.9299 24.26 68.2899 24.61C67.6499 24.96 66.9399 25.135 66.1599 25.135ZM66.1599 23.935C66.6499 23.935 67.1099 23.82 67.5399 23.59C67.9699 23.36 68.3149 23.015 68.5749 22.555C68.8449 22.095 68.9799 21.535 68.9799 20.875C68.9799 20.215 68.8499 19.655 68.5899 19.195C68.3299 18.735 67.9899 18.395 67.5699 18.175C67.1499 17.945 66.6949 17.83 66.2049 17.83C65.7049 17.83 65.2449 17.945 64.8249 18.175C64.4149 18.395 64.0849 18.735 63.8349 19.195C63.5849 19.655 63.4599 20.215 63.4599 20.875C63.4599 21.545 63.5799 22.11 63.8199 22.57C64.0699 23.03 64.3999 23.375 64.8099 23.605C65.2199 23.825 65.6699 23.935 66.1599 23.935ZM73.5346 18.115C73.7746 17.645 74.1146 17.28 74.5546 17.02C75.0046 16.76 75.5496 16.63 76.1896 16.63V18.04H75.8296C74.2996 18.04 73.5346 18.87 73.5346 20.53V25H72.1696V16.78H73.5346V18.115ZM85.2654 20.575C85.2654 20.835 85.2504 21.11 85.2204 21.4H78.6504C78.7004 22.21 78.9754 22.845 79.4754 23.305C79.9854 23.755 80.6004 23.98 81.3204 23.98C81.9104 23.98 82.4004 23.845 82.7904 23.575C83.1904 23.295 83.4704 22.925 83.6304 22.465H85.1004C84.8804 23.255 84.4404 23.9 83.7804 24.4C83.1204 24.89 82.3004 25.135 81.3204 25.135C80.5404 25.135 79.8404 24.96 79.2204 24.61C78.6104 24.26 78.1304 23.765 77.7804 23.125C77.4304 22.475 77.2554 21.725 77.2554 20.875C77.2554 20.025 77.4254 19.28 77.7654 18.64C78.1054 18 78.5804 17.51 79.1904 17.17C79.8104 16.82 80.5204 16.645 81.3204 16.645C82.1004 16.645 82.7904 16.815 83.3904 17.155C83.9904 17.495 84.4504 17.965 84.7704 18.565C85.1004 19.155 85.2654 19.825 85.2654 20.575ZM83.8554 20.29C83.8554 19.77 83.7404 19.325 83.5104 18.955C83.2804 18.575 82.9654 18.29 82.5654 18.1C82.1754 17.9 81.7404 17.8 81.2604 17.8C80.5704 17.8 79.9804 18.02 79.4904 18.46C79.0104 18.9 78.7354 19.51 78.6654 20.29H83.8554ZM91.7711 15.445C91.5111 15.445 91.2911 15.355 91.1111 15.175C90.9311 14.995 90.8411 14.775 90.8411 14.515C90.8411 14.255 90.9311 14.035 91.1111 13.855C91.2911 13.675 91.5111 13.585 91.7711 13.585C92.0211 13.585 92.2311 13.675 92.4011 13.855C92.5811 14.035 92.6711 14.255 92.6711 14.515C92.6711 14.775 92.5811 14.995 92.4011 15.175C92.2311 15.355 92.0211 15.445 91.7711 15.445ZM92.4311 16.78V25H91.0661V16.78H92.4311ZM98.7625 16.63C99.7625 16.63 100.573 16.935 101.193 17.545C101.813 18.145 102.123 19.015 102.123 20.155V25H100.773V20.35C100.773 19.53 100.568 18.905 100.158 18.475C99.7475 18.035 99.1875 17.815 98.4775 17.815C97.7575 17.815 97.1825 18.04 96.7525 18.49C96.3325 18.94 96.1225 19.595 96.1225 20.455V25H94.7575V16.78H96.1225V17.95C96.3925 17.53 96.7575 17.205 97.2175 16.975C97.6875 16.745 98.2025 16.63 98.7625 16.63ZM107.697 17.905H105.972V25H104.607V17.905H103.542V16.78H104.607V16.195C104.607 15.275 104.842 14.605 105.312 14.185C105.792 13.755 106.557 13.54 107.607 13.54V14.68C107.007 14.68 106.582 14.8 106.332 15.04C106.092 15.27 105.972 15.655 105.972 16.195V16.78H107.697V17.905ZM112.874 25.135C112.104 25.135 111.404 24.96 110.774 24.61C110.154 24.26 109.664 23.765 109.304 23.125C108.954 22.475 108.779 21.725 108.779 20.875C108.779 20.035 108.959 19.295 109.319 18.655C109.689 18.005 110.189 17.51 110.819 17.17C111.449 16.82 112.154 16.645 112.934 16.645C113.714 16.645 114.419 16.82 115.049 17.17C115.679 17.51 116.174 18 116.534 18.64C116.904 19.28 117.089 20.025 117.089 20.875C117.089 21.725 116.899 22.475 116.519 23.125C116.149 23.765 115.644 24.26 115.004 24.61C114.364 24.96 113.654 25.135 112.874 25.135ZM112.874 23.935C113.364 23.935 113.824 23.82 114.254 23.59C114.684 23.36 115.029 23.015 115.289 22.555C115.559 22.095 115.694 21.535 115.694 20.875C115.694 20.215 115.564 19.655 115.304 19.195C115.044 18.735 114.704 18.395 114.284 18.175C113.864 17.945 113.409 17.83 112.919 17.83C112.419 17.83 111.959 17.945 111.539 18.175C111.129 18.395 110.799 18.735 110.549 19.195C110.299 19.655 110.174 20.215 110.174 20.875C110.174 21.545 110.294 22.11 110.534 22.57C110.784 23.03 111.114 23.375 111.524 23.605C111.934 23.825 112.384 23.935 112.874 23.935Z" fill="white"/>
<path d="M136.22 16.0303C135.927 15.7374 135.927 15.2626 136.22 14.9697C136.513 14.6768 136.987 14.6768 137.28 14.9697L141.28 18.9697C141.573 19.2626 141.573 19.7374 141.28 20.0303L137.28 24.0303C136.987 24.3232 136.513 24.3232 136.22 24.0303C135.927 23.7374 135.927 23.2626 136.22 22.9697L138.939 20.25H129.25C128.836 20.25 128.5 19.9142 128.5 19.5C128.5 19.0858 128.836 18.75 129.25 18.75H138.939L136.22 16.0303Z" fill="white"/>
</svg>
