<svg width="180" height="34" viewBox="0 0 180 34" fill="none" xmlns="http://www.w3.org/2000/svg">
<rect width="180" height="34" rx="10" fill="black"/>
<path d="M57.192 14.004V23H56.009V16.292L53.019 23H52.187L49.184 16.279V23H48.001V14.004H49.275L52.603 21.44L55.931 14.004H57.192ZM62.3053 23.117C61.6379 23.117 61.0313 22.9653 60.4853 22.662C59.9479 22.3587 59.5233 21.9297 59.2113 21.375C58.9079 20.8117 58.7563 20.1617 58.7563 19.425C58.7563 18.697 58.9123 18.0557 59.2243 17.501C59.5449 16.9377 59.9783 16.5087 60.5243 16.214C61.0703 15.9107 61.6813 15.759 62.3573 15.759C63.0333 15.759 63.6443 15.9107 64.1903 16.214C64.7363 16.5087 65.1653 16.9333 65.4773 17.488C65.7979 18.0427 65.9583 18.6883 65.9583 19.425C65.9583 20.1617 65.7936 20.8117 65.4643 21.375C65.1436 21.9297 64.7059 22.3587 64.1513 22.662C63.5966 22.9653 62.9813 23.117 62.3053 23.117ZM62.3053 22.077C62.7299 22.077 63.1286 21.9773 63.5013 21.778C63.8739 21.5787 64.1729 21.2797 64.3983 20.881C64.6323 20.4823 64.7493 19.997 64.7493 19.425C64.7493 18.853 64.6366 18.3677 64.4113 17.969C64.1859 17.5703 63.8913 17.2757 63.5273 17.085C63.1633 16.8857 62.7689 16.786 62.3443 16.786C61.9109 16.786 61.5123 16.8857 61.1483 17.085C60.7929 17.2757 60.5069 17.5703 60.2903 17.969C60.0736 18.3677 59.9653 18.853 59.9653 19.425C59.9653 20.0057 60.0693 20.4953 60.2773 20.894C60.4939 21.2927 60.7799 21.5917 61.1353 21.791C61.4906 21.9817 61.8806 22.077 62.3053 22.077ZM68.6967 17.033C68.9047 16.6257 69.1994 16.3093 69.5807 16.084C69.9707 15.8587 70.443 15.746 70.9977 15.746V16.968H70.6857C69.3597 16.968 68.6967 17.6873 68.6967 19.126V23H67.5137V15.876H68.6967V17.033ZM78.8633 19.165C78.8633 19.3903 78.8503 19.6287 78.8243 19.88H73.1303C73.1736 20.582 73.412 21.1323 73.8453 21.531C74.2873 21.921 74.8203 22.116 75.4443 22.116C75.9556 22.116 76.3803 21.999 76.7183 21.765C77.065 21.5223 77.3076 21.2017 77.4463 20.803H78.7203C78.5296 21.4877 78.1483 22.0467 77.5763 22.48C77.0043 22.9047 76.2936 23.117 75.4443 23.117C74.7683 23.117 74.1616 22.9653 73.6243 22.662C73.0956 22.3587 72.6796 21.9297 72.3763 21.375C72.073 20.8117 71.9213 20.1617 71.9213 19.425C71.9213 18.6883 72.0686 18.0427 72.3633 17.488C72.658 16.9333 73.0696 16.5087 73.5983 16.214C74.1356 15.9107 74.751 15.759 75.4443 15.759C76.1203 15.759 76.7183 15.9063 77.2383 16.201C77.7583 16.4957 78.157 16.903 78.4343 17.423C78.7203 17.9343 78.8633 18.515 78.8633 19.165ZM77.6413 18.918C77.6413 18.4673 77.5416 18.0817 77.3423 17.761C77.143 17.4317 76.87 17.1847 76.5233 17.02C76.1853 16.8467 75.8083 16.76 75.3923 16.76C74.7943 16.76 74.283 16.9507 73.8583 17.332C73.4423 17.7133 73.204 18.242 73.1433 18.918H77.6413ZM84.5016 14.719C84.2763 14.719 84.0856 14.641 83.9296 14.485C83.7736 14.329 83.6956 14.1383 83.6956 13.913C83.6956 13.6877 83.7736 13.497 83.9296 13.341C84.0856 13.185 84.2763 13.107 84.5016 13.107C84.7183 13.107 84.9003 13.185 85.0476 13.341C85.2036 13.497 85.2816 13.6877 85.2816 13.913C85.2816 14.1383 85.2036 14.329 85.0476 14.485C84.9003 14.641 84.7183 14.719 84.5016 14.719ZM85.0736 15.876V23H83.8906V15.876H85.0736ZM90.5609 15.746C91.4275 15.746 92.1295 16.0103 92.6669 16.539C93.2042 17.059 93.4729 17.813 93.4729 18.801V23H92.3029V18.97C92.3029 18.2593 92.1252 17.7177 91.7699 17.345C91.4145 16.9637 90.9292 16.773 90.3139 16.773C89.6899 16.773 89.1915 16.968 88.8189 17.358C88.4549 17.748 88.2729 18.3157 88.2729 19.061V23H87.0899V15.876H88.2729V16.89C88.5069 16.526 88.8232 16.2443 89.2219 16.045C89.6292 15.8457 90.0755 15.746 90.5609 15.746ZM98.3043 16.851H96.8093V23H95.6263V16.851H94.7033V15.876H95.6263V15.369C95.6263 14.5717 95.83 13.991 96.2373 13.627C96.6533 13.2543 97.3163 13.068 98.2263 13.068V14.056C97.7063 14.056 97.338 14.16 97.1213 14.368C96.9133 14.5673 96.8093 14.901 96.8093 15.369V15.876H98.3043V16.851ZM102.791 23.117C102.123 23.117 101.517 22.9653 100.971 22.662C100.433 22.3587 100.009 21.9297 99.6966 21.375C99.3933 20.8117 99.2416 20.1617 99.2416 19.425C99.2416 18.697 99.3976 18.0557 99.7096 17.501C100.03 16.9377 100.464 16.5087 101.01 16.214C101.556 15.9107 102.167 15.759 102.843 15.759C103.519 15.759 104.13 15.9107 104.676 16.214C105.222 16.5087 105.651 16.9333 105.963 17.488C106.283 18.0427 106.444 18.6883 106.444 19.425C106.444 20.1617 106.279 20.8117 105.95 21.375C105.629 21.9297 105.191 22.3587 104.637 22.662C104.082 22.9653 103.467 23.117 102.791 23.117ZM102.791 22.077C103.215 22.077 103.614 21.9773 103.987 21.778C104.359 21.5787 104.658 21.2797 104.884 20.881C105.118 20.4823 105.235 19.997 105.235 19.425C105.235 18.853 105.122 18.3677 104.897 17.969C104.671 17.5703 104.377 17.2757 104.013 17.085C103.649 16.8857 103.254 16.786 102.83 16.786C102.396 16.786 101.998 16.8857 101.634 17.085C101.278 17.2757 100.992 17.5703 100.776 17.969C100.559 18.3677 100.451 18.853 100.451 19.425C100.451 20.0057 100.555 20.4953 100.763 20.894C100.979 21.2927 101.265 21.5917 101.621 21.791C101.976 21.9817 102.366 22.077 102.791 22.077Z" fill="white"/>
<path d="M128.532 14.7129C128.284 14.4355 128.284 13.9856 128.532 13.7081C128.78 13.4306 129.182 13.4306 129.429 13.7081L132.814 17.4976C133.062 17.7751 133.062 18.2249 132.814 18.5024L129.429 22.2919C129.182 22.5694 128.78 22.5694 128.532 22.2919C128.284 22.0144 128.284 21.5646 128.532 21.2871L130.833 18.7105H122.635C122.284 18.7105 122 18.3924 122 18C122 17.6076 122.284 17.2895 122.635 17.2895H130.833L128.532 14.7129Z" fill="white"/>
</svg>
