<svg width="77" height="26" viewBox="0 0 77 26" fill="none" xmlns="http://www.w3.org/2000/svg">
<rect width="77" height="26" rx="13" fill="#81F1A0"/>
<path d="M20.4998 20.0834C24.4119 20.0834 27.5832 16.9121 27.5832 13.0001C27.5832 9.08806 24.4119 5.91675 20.4998 5.91675C16.5878 5.91675 13.4165 9.08806 13.4165 13.0001C13.4165 16.9121 16.5878 20.0834 20.4998 20.0834Z" stroke="black" stroke-linecap="round" stroke-linejoin="round"/>
<path d="M20.5 8.75V13L23.3333 14.4167" stroke="black" stroke-linecap="round" stroke-linejoin="round"/>
<path d="M39.323 16.577C38.6117 16.577 37.9627 16.412 37.376 16.082C36.7893 15.7447 36.3237 15.279 35.979 14.685C35.6417 14.0837 35.473 13.409 35.473 12.661C35.473 11.913 35.6417 11.242 35.979 10.648C36.3237 10.0467 36.7893 9.581 37.376 9.251C37.9627 8.91367 38.6117 8.745 39.323 8.745C40.0417 8.745 40.6943 8.91367 41.281 9.251C41.8677 9.581 42.3297 10.043 42.667 10.637C43.0043 11.231 43.173 11.9057 43.173 12.661C43.173 13.4163 43.0043 14.091 42.667 14.685C42.3297 15.279 41.8677 15.7447 41.281 16.082C40.6943 16.412 40.0417 16.577 39.323 16.577ZM39.323 15.708C39.8583 15.708 40.3387 15.5833 40.764 15.334C41.1967 15.0847 41.534 14.729 41.776 14.267C42.0253 13.805 42.15 13.2697 42.15 12.661C42.15 12.045 42.0253 11.5097 41.776 11.055C41.534 10.593 41.2003 10.2373 40.775 9.988C40.3497 9.73867 39.8657 9.614 39.323 9.614C38.7803 9.614 38.2963 9.73867 37.871 9.988C37.4457 10.2373 37.1083 10.593 36.859 11.055C36.617 11.5097 36.496 12.045 36.496 12.661C36.496 13.2697 36.617 13.805 36.859 14.267C37.1083 14.729 37.4457 15.0847 37.871 15.334C38.3037 15.5833 38.7877 15.708 39.323 15.708ZM45.4955 11.583C45.6935 11.2383 45.9868 10.9523 46.3755 10.725C46.7715 10.4903 47.2298 10.373 47.7505 10.373C48.2858 10.373 48.7698 10.5013 49.2025 10.758C49.6425 11.0147 49.9871 11.3777 50.2365 11.847C50.4858 12.309 50.6105 12.848 50.6105 13.464C50.6105 14.0727 50.4858 14.6153 50.2365 15.092C49.9871 15.5687 49.6425 15.939 49.2025 16.203C48.7698 16.467 48.2858 16.599 47.7505 16.599C47.2371 16.599 46.7825 16.4853 46.3865 16.258C45.9978 16.0233 45.7008 15.7337 45.4955 15.389V19.36H44.4945V10.472H45.4955V11.583ZM49.5875 13.464C49.5875 13.0093 49.4958 12.6133 49.3125 12.276C49.1291 11.9387 48.8798 11.682 48.5645 11.506C48.2565 11.33 47.9155 11.242 47.5415 11.242C47.1748 11.242 46.8338 11.3337 46.5185 11.517C46.2105 11.693 45.9611 11.9533 45.7705 12.298C45.5871 12.6353 45.4955 13.0277 45.4955 13.475C45.4955 13.9297 45.5871 14.3293 45.7705 14.674C45.9611 15.0113 46.2105 15.2717 46.5185 15.455C46.8338 15.631 47.1748 15.719 47.5415 15.719C47.9155 15.719 48.2565 15.631 48.5645 15.455C48.8798 15.2717 49.1291 15.0113 49.3125 14.674C49.4958 14.3293 49.5875 13.926 49.5875 13.464ZM57.4281 13.255C57.4281 13.4457 57.4171 13.6473 57.3951 13.86H52.5771C52.6137 14.454 52.8154 14.9197 53.1821 15.257C53.5561 15.587 54.0071 15.752 54.5351 15.752C54.9677 15.752 55.3271 15.653 55.6131 15.455C55.9064 15.2497 56.1117 14.9783 56.2291 14.641H57.3071C57.1457 15.2203 56.8231 15.6933 56.3391 16.06C55.8551 16.4193 55.2537 16.599 54.5351 16.599C53.9631 16.599 53.4497 16.4707 52.9951 16.214C52.5477 15.9573 52.1957 15.5943 51.9391 15.125C51.6824 14.6483 51.5541 14.0983 51.5541 13.475C51.5541 12.8517 51.6787 12.3053 51.9281 11.836C52.1774 11.3667 52.5257 11.0073 52.9731 10.758C53.4277 10.5013 53.9484 10.373 54.5351 10.373C55.1071 10.373 55.6131 10.4977 56.0531 10.747C56.4931 10.9963 56.8304 11.341 57.0651 11.781C57.3071 12.2137 57.4281 12.705 57.4281 13.255ZM56.3941 13.046C56.3941 12.6647 56.3097 12.3383 56.1411 12.067C55.9724 11.7883 55.7414 11.5793 55.4481 11.44C55.1621 11.2933 54.8431 11.22 54.4911 11.22C53.9851 11.22 53.5524 11.3813 53.1931 11.704C52.8411 12.0267 52.6394 12.474 52.5881 13.046H56.3941ZM61.6863 10.362C62.4197 10.362 63.0137 10.5857 63.4683 11.033C63.923 11.473 64.1503 12.111 64.1503 12.947V16.5H63.1603V13.09C63.1603 12.4887 63.01 12.0303 62.7093 11.715C62.4087 11.3923 61.998 11.231 61.4773 11.231C60.9493 11.231 60.5277 11.396 60.2123 11.726C59.9043 12.056 59.7503 12.5363 59.7503 13.167V16.5H58.7493V10.472H59.7503V11.33C59.9483 11.022 60.216 10.7837 60.5533 10.615C60.898 10.4463 61.2757 10.362 61.6863 10.362Z" fill="black"/>
</svg>
