<svg width="84" height="19" viewBox="0 0 84 19" fill="none" xmlns="http://www.w3.org/2000/svg">
<rect width="84" height="19" rx="5" fill="#9EA2FF"/>
<path d="M14.36 13L12.76 10.22H11.89V13H10.75V6.05H13.15C13.6833 6.05 14.1333 6.14333 14.5 6.33C14.8733 6.51667 15.15 6.76667 15.33 7.08C15.5167 7.39333 15.61 7.74333 15.61 8.13C15.61 8.58333 15.4767 8.99667 15.21 9.37C14.95 9.73667 14.5467 9.98667 14 10.12L15.72 13H14.36ZM11.89 9.31H13.15C13.5767 9.31 13.8967 9.20333 14.11 8.99C14.33 8.77667 14.44 8.49 14.44 8.13C14.44 7.77 14.3333 7.49 14.12 7.29C13.9067 7.08333 13.5833 6.98 13.15 6.98H11.89V9.31ZM18.2084 6.97V9.01H20.6084V9.94H18.2084V12.07H20.9084V13H17.0684V6.04H20.9084V6.97H18.2084ZM24.6025 13.07C24.1358 13.07 23.7158 12.99 23.3425 12.83C22.9692 12.6633 22.6758 12.43 22.4625 12.13C22.2492 11.83 22.1425 11.48 22.1425 11.08H23.3625C23.3892 11.38 23.5058 11.6267 23.7125 11.82C23.9258 12.0133 24.2225 12.11 24.6025 12.11C24.9958 12.11 25.3025 12.0167 25.5225 11.83C25.7425 11.6367 25.8525 11.39 25.8525 11.09C25.8525 10.8567 25.7825 10.6667 25.6425 10.52C25.5092 10.3733 25.3392 10.26 25.1325 10.18C24.9325 10.1 24.6525 10.0133 24.2925 9.92C23.8392 9.8 23.4692 9.68 23.1825 9.56C22.9025 9.43333 22.6625 9.24 22.4625 8.98C22.2625 8.72 22.1625 8.37333 22.1625 7.94C22.1625 7.54 22.2625 7.19 22.4625 6.89C22.6625 6.59 22.9425 6.36 23.3025 6.2C23.6625 6.04 24.0792 5.96 24.5525 5.96C25.2258 5.96 25.7758 6.13 26.2025 6.47C26.6358 6.80333 26.8758 7.26333 26.9225 7.85H25.6625C25.6425 7.59667 25.5225 7.38 25.3025 7.2C25.0825 7.02 24.7925 6.93 24.4325 6.93C24.1058 6.93 23.8392 7.01333 23.6325 7.18C23.4258 7.34667 23.3225 7.58667 23.3225 7.9C23.3225 8.11333 23.3858 8.29 23.5125 8.43C23.6458 8.56333 23.8125 8.67 24.0125 8.75C24.2125 8.83 24.4858 8.91667 24.8325 9.01C25.2925 9.13667 25.6658 9.26333 25.9525 9.39C26.2458 9.51667 26.4925 9.71333 26.6925 9.98C26.8992 10.24 27.0025 10.59 27.0025 11.03C27.0025 11.3833 26.9058 11.7167 26.7125 12.03C26.5258 12.3433 26.2492 12.5967 25.8825 12.79C25.5225 12.9767 25.0958 13.07 24.6025 13.07ZM32.8377 6.05V6.98H30.9877V13H29.8477V6.98H27.9877V6.05H32.8377ZM38.1822 11.58H35.2722L34.7722 13H33.5822L36.0722 6.04H37.3922L39.8822 13H38.6822L38.1822 11.58ZM37.8622 10.65L36.7322 7.42L35.5922 10.65H37.8622ZM42.0948 6.05V10.48C42.0948 11.0067 42.2315 11.4033 42.5048 11.67C42.7848 11.9367 43.1715 12.07 43.6648 12.07C44.1648 12.07 44.5515 11.9367 44.8248 11.67C45.1048 11.4033 45.2448 11.0067 45.2448 10.48V6.05H46.3848V10.46C46.3848 11.0267 46.2615 11.5067 46.0148 11.9C45.7682 12.2933 45.4382 12.5867 45.0248 12.78C44.6115 12.9733 44.1548 13.07 43.6548 13.07C43.1548 13.07 42.6982 12.9733 42.2848 12.78C41.8782 12.5867 41.5548 12.2933 41.3148 11.9C41.0748 11.5067 40.9548 11.0267 40.9548 10.46V6.05H42.0948ZM51.4791 13L49.8791 10.22H49.0091V13H47.8691V6.05H50.2691C50.8025 6.05 51.2525 6.14333 51.6191 6.33C51.9925 6.51667 52.2691 6.76667 52.4491 7.08C52.6358 7.39333 52.7291 7.74333 52.7291 8.13C52.7291 8.58333 52.5958 8.99667 52.3291 9.37C52.0691 9.73667 51.6658 9.98667 51.1191 10.12L52.8391 13H51.4791ZM49.0091 9.31H50.2691C50.6958 9.31 51.0158 9.20333 51.2291 8.99C51.4491 8.77667 51.5591 8.49 51.5591 8.13C51.5591 7.77 51.4525 7.49 51.2391 7.29C51.0258 7.08333 50.7025 6.98 50.2691 6.98H49.0091V9.31ZM58.3775 11.58H55.4675L54.9675 13H53.7775L56.2675 6.04H57.5875L60.0775 13H58.8775L58.3775 11.58ZM58.0575 10.65L56.9275 7.42L55.7875 10.65H58.0575ZM66.8702 13H65.7302L62.3002 7.81V13H61.1602V6.04H62.3002L65.7302 11.22V6.04H66.8702V13ZM72.8572 6.05V6.98H71.0072V13H69.8672V6.98H68.0072V6.05H72.8572Z" fill="black"/>
</svg>
