<svg width="24" height="24" viewBox="0 0 24 24" fill="none" xmlns="http://www.w3.org/2000/svg">
<path fill-rule="evenodd" clip-rule="evenodd" d="M14.3852 15.4458C11.7349 17.5685 7.85545 17.4014 5.39866 14.9446C2.76262 12.3086 2.76262 8.0347 5.39866 5.39866C8.0347 2.76262 12.3086 2.76262 14.9446 5.39866C17.4014 7.85544 17.5685 11.7349 15.4458 14.3852L20.6015 19.5408C20.8944 19.8337 20.8944 20.3086 20.6015 20.6015C20.3086 20.8944 19.8337 20.8944 19.5408 20.6015L14.3852 15.4458ZM6.45932 13.884C4.40907 11.8337 4.40907 8.50957 6.45932 6.45932C8.50958 4.40907 11.8337 4.40907 13.884 6.45932C15.9327 8.50807 15.9342 11.8288 13.8885 13.8795C13.887 13.881 13.8855 13.8824 13.8839 13.884C13.8824 13.8855 13.8809 13.887 13.8795 13.8885C11.8288 15.9342 8.50807 15.9327 6.45932 13.884Z" fill="#C0C0C0"/>
</svg>
