<svg width="22" height="22" viewBox="0 0 22 22" fill="none" xmlns="http://www.w3.org/2000/svg">
<path fill-rule="evenodd" clip-rule="evenodd" d="M2.25513 15.4174C2.05202 15.2068 2.00448 14.8907 2.13666 14.6296L2.7797 13.3597C4.30162 10.3541 7.38432 8.45967 10.7532 8.45967H11.0694C11.0925 7.95882 11.1222 7.45821 11.1587 6.95796L11.2209 6.10487C11.2714 5.41112 12.045 5.02331 12.6311 5.39785C14.554 6.62651 16.2257 8.20968 17.5569 10.063L17.975 10.645C18.1473 10.8847 18.1473 11.2075 17.975 11.4472L17.5569 12.0292C16.2257 13.8825 14.554 15.4656 12.6311 16.6943C12.045 17.0689 11.2714 16.681 11.2209 15.9873L11.1587 15.1342C11.1151 14.5368 11.0811 13.9388 11.0568 13.3406C9.08607 13.2837 7.11779 13.6815 5.30887 14.5163L3.03811 15.5645C2.77243 15.687 2.45825 15.6281 2.25513 15.4174ZM4.28852 13.4729L4.73267 13.2679C6.94288 12.2479 9.36798 11.8172 11.7743 12.002C12.1248 12.029 12.3985 12.3159 12.4088 12.6671C12.4322 13.4568 12.4726 14.2459 12.5301 15.0343L12.5351 15.1025C14.0415 14.0377 15.3618 12.7283 16.4402 11.227L16.5701 11.0461L16.4402 10.8652C15.3618 9.36384 14.0415 8.05453 12.5351 6.98968L12.5301 7.05792C12.4788 7.76157 12.4411 8.46595 12.417 9.1707C12.4043 9.54104 12.1004 9.83464 11.7299 9.83464H10.7532C8.0974 9.83464 5.65176 11.2261 4.28852 13.4729Z" fill="black"/>
</svg>
