<svg width="90" height="18" viewBox="0 0 90 18" fill="none" xmlns="http://www.w3.org/2000/svg">
<path d="M9 1.5L11.3175 6.195L16.5 6.9525L12.75 10.605L13.635 15.765L9 13.3275L4.365 15.765L5.25 10.605L1.5 6.9525L6.6825 6.195L9 1.5Z" fill="#FFD600" stroke="black" stroke-linecap="round" stroke-linejoin="round"/>
<path d="M27 1.5L29.3175 6.195L34.5 6.9525L30.75 10.605L31.635 15.765L27 13.3275L22.365 15.765L23.25 10.605L19.5 6.9525L24.6825 6.195L27 1.5Z" fill="#FFD600" stroke="black" stroke-linecap="round" stroke-linejoin="round"/>
<path d="M45 1.5L47.3175 6.195L52.5 6.9525L48.75 10.605L49.635 15.765L45 13.3275L40.365 15.765L41.25 10.605L37.5 6.9525L42.6825 6.195L45 1.5Z" fill="#FFD600" stroke="black" stroke-linecap="round" stroke-linejoin="round"/>
<path d="M63 1.5L65.3175 6.195L70.5 6.9525L66.75 10.605L67.635 15.765L63 13.3275L58.365 15.765L59.25 10.605L55.5 6.9525L60.6825 6.195L63 1.5Z" fill="#FFD600" stroke="black" stroke-linecap="round" stroke-linejoin="round"/>
<path d="M81 1.5L83.3175 6.195L88.5 6.9525L84.75 10.605L85.635 15.765L81 13.3275L76.365 15.765L77.25 10.605L73.5 6.9525L78.6825 6.195L81 1.5Z" stroke="black" stroke-linecap="round" stroke-linejoin="round"/>
</svg>
