<svg width="17" height="17" viewBox="0 0 17 17" fill="none" xmlns="http://www.w3.org/2000/svg">
<path fill-rule="evenodd" clip-rule="evenodd" d="M8.49992 1.77087C4.78351 1.77087 1.77075 4.78363 1.77075 8.50004C1.77075 12.216 4.78285 15.2286 8.49871 15.2292H8.50112C12.217 15.2286 15.2291 12.216 15.2291 8.50004C15.2291 4.78363 12.2163 1.77087 8.49992 1.77087ZM2.67388 6.97512C2.54675 7.46212 2.47909 7.97318 2.47909 8.50004C2.47909 9.0269 2.54675 9.53796 2.67388 10.0249V9.91671H5.42074C5.35141 9.46061 5.31242 8.98659 5.31242 8.50004C5.31242 8.01349 5.35141 7.53947 5.42074 7.08337H2.67388V6.97512ZM2.86481 6.37504H5.55499C5.77581 5.40307 6.12473 4.53362 6.50563 3.82462C6.76666 3.33876 7.04596 2.92214 7.31502 2.59576C5.26381 3.00513 3.58858 4.45671 2.86481 6.37504ZM6.13787 7.08337C6.06318 7.53848 6.02075 8.01285 6.02075 8.50004C6.02075 8.98723 6.06318 9.4616 6.13787 9.91671H10.862C10.9367 9.4616 10.9791 8.98723 10.9791 8.50004C10.9791 8.01285 10.9367 7.53848 10.862 7.08337H6.13787ZM10.7171 6.37504H6.2828C6.48868 5.53547 6.79569 4.7814 7.12965 4.15985C7.42842 3.6037 7.74384 3.16289 8.01818 2.8667C8.15588 2.71809 8.27644 2.61319 8.37284 2.54817C8.44644 2.49854 8.48752 2.48458 8.49992 2.48068C8.51231 2.48458 8.5534 2.49854 8.62699 2.54817C8.7234 2.61319 8.84396 2.71809 8.98166 2.8667C9.25599 3.16289 9.57141 3.6037 9.87019 4.15985C10.2042 4.7814 10.5112 5.53547 10.7171 6.37504ZM11.5791 7.08337C11.6485 7.53947 11.6874 8.01349 11.6874 8.50004C11.6874 8.98659 11.6485 9.46061 11.5791 9.91671H14.326V10.0249C14.4531 9.53796 14.5208 9.0269 14.5208 8.50004C14.5208 7.97318 14.4531 7.46212 14.326 6.97512V7.08337H11.5791ZM14.135 6.37504H11.4448C11.224 5.40307 10.8751 4.53362 10.4942 3.82462C10.2332 3.33876 9.95384 2.92214 9.68482 2.59576C11.736 3.00513 13.4113 4.45671 14.135 6.37504ZM7.31502 14.4044C5.26381 13.9949 3.58858 12.5433 2.86481 10.625H5.55499C5.77581 11.597 6.12473 12.4665 6.50563 13.1755C6.76666 13.6613 7.04596 14.078 7.31502 14.4044ZM7.12965 12.8402C6.79569 12.2186 6.48868 11.4646 6.2828 10.625H10.7171C10.5112 11.4646 10.2042 12.2186 9.87019 12.8402C9.57141 13.3964 9.25599 13.8372 8.98166 14.1334C8.84396 14.282 8.7234 14.3869 8.62699 14.4519C8.5534 14.5015 8.51231 14.5155 8.49992 14.5194C8.48752 14.5155 8.44644 14.5015 8.37284 14.4519C8.27644 14.3869 8.15588 14.282 8.01818 14.1334C7.74384 13.8372 7.42842 13.3964 7.12965 12.8402ZM10.4942 13.1755C10.8751 12.4665 11.224 11.597 11.4448 10.625H14.135C13.4113 12.5433 11.736 13.9949 9.68482 14.4044C9.95384 14.078 10.2332 13.6613 10.4942 13.1755Z" fill="#8E8E8E"/>
</svg>
